<svg width="52" height="60" viewBox="0 0 52 60" fill="none" xmlns="http://www.w3.org/2000/svg">
<rect x="0.297607" y="12.7979" width="51.2738" height="46.4057" rx="20" fill="#F5F6FB"/>
<path d="M13.7984 4.72461C13.3997 4.72461 13.0763 5.09659 13.0763 5.55553V5.90706C13.0763 6.36589 13.3996 6.73798 13.7984 6.73798C14.1972 6.73798 14.5205 6.366 14.5205 5.90706V5.55553C14.5204 5.09659 14.1972 4.72461 13.7984 4.72461Z" fill="#071F41"/>
<path d="M11.6988 7.4917H11.3934C10.9946 7.4917 10.6713 7.86368 10.6713 8.32262C10.6713 8.78145 10.9945 9.15354 11.3934 9.15354H11.6988C12.0975 9.15354 12.4209 8.78156 12.4209 8.32262C12.4209 7.86379 12.0976 7.4917 11.6988 7.4917Z" fill="#071F41"/>
<path d="M12.8242 6.02695L12.6082 5.77845C12.3263 5.45404 11.869 5.45404 11.587 5.77856C11.3051 6.10307 11.3051 6.62917 11.5871 6.95357L11.8032 7.20207C11.9442 7.36428 12.1289 7.44543 12.3137 7.44543C12.4985 7.44543 12.6834 7.36428 12.8243 7.20196C13.1063 6.87745 13.1063 6.35135 12.8242 6.02695Z" fill="#071F41"/>
<path d="M12.8243 9.44358C12.5423 9.11907 12.0851 9.11907 11.8031 9.44358L11.587 9.69219C11.305 10.0166 11.305 10.5428 11.587 10.8672C11.728 11.0294 11.9127 11.1106 12.0976 11.1106C12.2824 11.1106 12.4672 11.0294 12.6082 10.8672L12.8243 10.6186C13.1063 10.2942 13.1063 9.76799 12.8243 9.44358Z" fill="#071F41"/>
<path d="M45.3112 6.85344H20.9168C20.6415 5.07598 19.8702 3.44805 18.7039 2.20795C17.3649 0.784109 15.6227 0 13.7984 0C9.81013 0 6.56543 3.73363 6.56543 8.32289C6.56543 12.9122 9.81013 16.6458 13.7984 16.6458C14.5307 16.6458 15.2502 16.5178 15.9446 16.269C17.0327 17.4502 18.3808 18.3339 19.9033 18.7895C20.8869 19.0839 21.6342 20.0179 21.8069 21.1692L22.7248 27.2869C23.0491 29.4483 24.0943 31.322 25.6679 32.5629C26.8611 33.5037 27.5735 35.0378 27.5735 36.6667V49.1358C27.0229 49.5373 26.6703 50.243 26.6703 51.0216C26.6703 51.0453 26.6706 51.0689 26.6712 51.0926C24.867 51.5169 23.381 51.9077 22.2529 52.2545C21.4844 52.4907 20.9047 52.6991 20.4805 52.8915C20.0853 53.0707 19.3496 53.4044 19.3496 54.1789C19.3496 55.2196 20.5254 55.3972 21.4703 55.5401C22.282 55.6628 23.4066 55.765 24.8128 55.844C27.1883 55.9776 29.5948 55.9998 29.6189 56C29.6207 56 29.6225 56 29.6243 56C29.6261 56 29.628 56 29.6297 56C29.6538 55.9998 32.0603 55.9775 34.4358 55.844C35.842 55.765 36.9666 55.6628 37.7783 55.5401C38.7232 55.3972 39.899 55.2196 39.899 54.1789C39.899 53.3558 39.2394 52.9312 36.83 52.2039C35.37 51.7632 33.5511 51.3183 32.2448 51.0147C32.2433 50.4148 32.036 49.8541 31.6751 49.4417V36.6665C31.6751 35.0377 32.3876 33.5036 33.5807 32.5628C35.1543 31.3219 36.1995 29.4482 36.5238 27.2868L37.4417 21.1691C37.6144 20.0178 38.3616 19.0838 39.3453 18.7894C42.6437 17.8024 45.1244 14.8092 45.909 11.1234C45.912 11.1092 45.9153 11.0952 45.9177 11.0808C46.0834 10.2879 46.1724 9.464 46.1724 8.62061V7.84459C46.1725 7.29805 45.7861 6.85344 45.3112 6.85344ZM13.7984 14.9839C10.6065 14.9839 8.00965 11.9958 8.00965 8.32289C8.00965 4.64997 10.6065 1.66184 13.7984 1.66184C15.2583 1.66184 16.6524 2.28922 17.7238 3.42847C18.5931 4.3528 19.188 5.54575 19.4437 6.85344H18.7041C18.1325 4.31988 16.1263 2.48828 13.7984 2.48828C11.0025 2.48828 8.72786 5.10573 8.72786 8.32289C8.72786 11.54 11.0026 14.1575 13.7984 14.1575C14.0066 14.1575 14.2152 14.1413 14.423 14.1115C14.5616 14.3717 14.71 14.6244 14.8675 14.8695C14.5165 14.9454 14.1593 14.9839 13.7984 14.9839ZM16.0096 5.7785C15.7277 5.45409 15.2704 5.45409 14.9885 5.7785L14.7725 6.027C14.578 6.25067 14.5178 6.57027 14.5914 6.85344H13.9377C13.4627 6.85344 13.0763 7.29805 13.0763 7.84459V8.62061C13.0763 9.46378 13.1652 10.2875 13.3309 11.0801C13.3334 11.0955 13.3368 11.1105 13.3401 11.1256C13.4398 11.5935 13.5659 12.0506 13.7186 12.4935C11.7558 12.4442 10.172 10.593 10.172 8.32289C10.172 6.02197 11.7988 4.15002 13.7984 4.15002C15.3326 4.15002 16.6717 5.2617 17.1923 6.85344H16.0828C16.2881 6.52848 16.2643 6.07152 16.0096 5.7785ZM31.8525 52.6189C34.3911 53.2067 35.9848 53.6522 36.9823 53.974C35.158 54.1802 32.2317 54.3152 29.6244 54.3382C27.0177 54.3152 24.0916 54.1802 22.2673 53.9742C23.2213 53.6663 24.7204 53.2454 27.0697 52.6949C27.7196 52.5428 28.1694 51.8425 28.1161 51.0666C28.1151 51.0518 28.1145 51.0367 28.1145 51.0215C28.1145 50.7641 28.2657 50.5378 28.4823 50.471C28.7981 50.3738 29.0177 50.0445 29.0177 49.6684V36.6665C29.0177 35.5725 28.7783 34.5115 28.3391 33.568C28.7427 33.5981 29.1834 33.6135 29.6244 33.6135C30.0654 33.6135 30.5061 33.5981 30.9097 33.568C30.4705 34.5116 30.2311 35.5726 30.2311 36.6665V49.8361C30.2311 50.1212 30.3582 50.3864 30.5677 50.5386C30.7136 50.6446 30.8008 50.825 30.8008 51.0214C30.8008 51.034 30.8004 51.0466 30.7998 51.0581C30.7582 51.7995 31.2107 52.4704 31.8525 52.6189ZM44.7285 8.62061H44.7284C44.7284 9.12013 44.6919 9.61166 44.6217 10.0917H22.8832C22.4845 10.0917 22.1611 10.4637 22.1611 10.9226C22.1611 11.3815 22.4844 11.7535 22.8832 11.7535H44.2298C43.3664 14.3772 41.4453 16.4442 38.9821 17.1812C37.4509 17.6393 36.2877 19.0937 36.0188 20.8865L35.101 27.0041C34.8436 28.7198 34.0139 30.2071 32.7646 31.1921C32.5709 31.3449 31.9957 31.7017 31.8907 31.7555C31.3193 32.0147 27.9344 32.0148 27.3591 31.756C27.2545 31.7028 26.6785 31.3453 26.4843 31.1922C25.235 30.2071 24.4053 28.7198 24.1479 27.0042L23.2301 20.8866C22.9612 19.0938 21.7979 17.6395 20.2668 17.1813C18.8731 16.7642 17.6532 15.921 16.6996 14.7925C16.677 14.7604 16.6522 14.7308 16.626 14.7033C15.9296 13.856 15.3812 12.8541 15.0191 11.7537H19.5236C19.9223 11.7537 20.2457 11.3817 20.2457 10.9227C20.2457 10.4639 19.9224 10.0918 19.5236 10.0918H14.6272C14.557 9.61177 14.5205 9.12013 14.5205 8.62072V8.51528H44.7285V8.62061V8.62061Z" fill="#071F41"/>
</svg>
