<svg aria-hidden="true" style="position: absolute; width: 0; height: 0; overflow: hidden;" version="1.1" xmlns="http://www.w3.org/2000/svg" xmlns:xlink="http://www.w3.org/1999/xlink">
<defs>
<symbol id="icon-alcohol" viewBox="0 0 28 32">
<path fill="#f5f6fb" style="fill: var(--color1, #f5f6fb)" d="M10.825 6.826h6.013c5.891 0 10.667 4.776 10.667 10.667v3.416c0 5.891-4.776 10.667-10.667 10.667h-6.013c-5.891 0-10.667-4.776-10.667-10.667v-3.416c0-5.891 4.776-10.667 10.667-10.667z"></path>
<path fill="#071f41" style="fill: var(--color2, #071f41)" d="M7.359 2.52c-0.213 0-0.385 0.198-0.385 0.443v0.187c0 0.245 0.172 0.443 0.385 0.443s0.385-0.198 0.385-0.443v-0.187c-0-0.245-0.172-0.443-0.385-0.443z"></path>
<path fill="#071f41" style="fill: var(--color2, #071f41)" d="M6.239 3.996h-0.163c-0.213 0-0.385 0.198-0.385 0.443s0.172 0.443 0.385 0.443h0.163c0.213 0 0.385-0.198 0.385-0.443s-0.172-0.443-0.385-0.443z"></path>
<path fill="#071f41" style="fill: var(--color2, #071f41)" d="M6.84 3.214l-0.115-0.133c-0.15-0.173-0.394-0.173-0.545 0s-0.15 0.454 0 0.627l0.115 0.133c0.075 0.087 0.174 0.13 0.272 0.13s0.197-0.043 0.272-0.13c0.15-0.173 0.15-0.454-0-0.627z"></path>
<path fill="#071f41" style="fill: var(--color2, #071f41)" d="M6.84 5.037c-0.15-0.173-0.394-0.173-0.545 0l-0.115 0.133c-0.15 0.173-0.15 0.454 0 0.627 0.075 0.087 0.174 0.13 0.272 0.13s0.197-0.043 0.272-0.13l0.115-0.133c0.15-0.173 0.15-0.454 0-0.627z"></path>
<path fill="#071f41" style="fill: var(--color2, #071f41)" d="M24.166 3.655h-13.010c-0.147-0.948-0.558-1.816-1.18-2.478-0.714-0.759-1.643-1.178-2.616-1.178-2.127 0-3.858 1.991-3.858 4.439s1.73 4.439 3.858 4.439c0.391 0 0.774-0.068 1.145-0.201 0.58 0.63 1.299 1.101 2.111 1.344 0.525 0.157 0.923 0.655 1.015 1.269l0.49 3.263c0.173 1.153 0.73 2.152 1.57 2.814 0.636 0.502 1.016 1.32 1.016 2.189v6.65c-0.294 0.214-0.482 0.59-0.482 1.006 0 0.013 0 0.025 0 0.038-0.962 0.226-1.755 0.435-2.356 0.62-0.41 0.126-0.719 0.237-0.945 0.34-0.211 0.096-0.603 0.274-0.603 0.687 0 0.555 0.627 0.65 1.131 0.726 0.433 0.065 1.033 0.12 1.783 0.162 1.267 0.071 2.55 0.083 2.563 0.083 0.001 0 0.002 0 0.003 0s0.002 0 0.003 0c0.013-0 1.296-0.012 2.563-0.083 0.75-0.042 1.35-0.097 1.783-0.162 0.504-0.076 1.131-0.171 1.131-0.726 0-0.439-0.352-0.665-1.637-1.053-0.779-0.235-1.749-0.472-2.445-0.634-0.001-0.32-0.111-0.619-0.304-0.839v-6.813c0-0.869 0.38-1.687 1.016-2.189 0.839-0.662 1.397-1.661 1.57-2.814l0.49-3.263c0.092-0.614 0.491-1.112 1.015-1.269 1.759-0.526 3.082-2.123 3.501-4.089 0.002-0.008 0.003-0.015 0.005-0.023 0.088-0.423 0.136-0.862 0.136-1.312v-0.414c0-0.292-0.206-0.529-0.459-0.529zM7.359 7.991c-1.702 0-3.087-1.594-3.087-3.553s1.385-3.553 3.087-3.553c0.779 0 1.522 0.335 2.094 0.942 0.464 0.493 0.781 1.129 0.917 1.827h-0.394c-0.305-1.351-1.375-2.328-2.616-2.328-1.491 0-2.704 1.396-2.704 3.112s1.213 3.112 2.704 3.112c0.111 0 0.222-0.009 0.333-0.025 0.074 0.139 0.153 0.274 0.237 0.404-0.187 0.040-0.378 0.061-0.57 0.061zM8.538 3.082c-0.15-0.173-0.394-0.173-0.545 0l-0.115 0.133c-0.104 0.119-0.136 0.29-0.097 0.441h-0.349c-0.253 0-0.459 0.237-0.459 0.529v0.414c0 0.45 0.047 0.889 0.136 1.312 0.001 0.008 0.003 0.016 0.005 0.024 0.053 0.25 0.12 0.493 0.202 0.73-1.047-0.026-1.892-1.014-1.892-2.224 0-1.227 0.868-2.226 1.934-2.226 0.818 0 1.532 0.593 1.81 1.442h-0.592c0.11-0.173 0.097-0.417-0.039-0.573zM16.988 28.063c1.354 0.314 2.204 0.551 2.736 0.723-0.973 0.11-2.534 0.182-3.924 0.194-1.39-0.012-2.951-0.084-3.924-0.194 0.509-0.164 1.308-0.389 2.561-0.682 0.347-0.081 0.587-0.455 0.558-0.868-0.001-0.008-0.001-0.016-0.001-0.024 0-0.137 0.081-0.258 0.196-0.294 0.168-0.052 0.286-0.227 0.286-0.428v-6.934c0-0.583-0.128-1.149-0.362-1.653 0.215 0.016 0.45 0.024 0.685 0.024s0.47-0.008 0.685-0.024c-0.234 0.503-0.362 1.069-0.362 1.653v7.024c0 0.152 0.068 0.294 0.18 0.375 0.078 0.057 0.124 0.153 0.124 0.258 0 0.007-0 0.013-0.001 0.020-0.022 0.395 0.219 0.753 0.561 0.832zM23.855 4.598h-0c0 0.266-0.019 0.529-0.057 0.785h-11.594c-0.213 0-0.385 0.198-0.385 0.443s0.172 0.443 0.385 0.443h11.385c-0.46 1.399-1.485 2.502-2.799 2.895-0.817 0.244-1.437 1.020-1.58 1.976l-0.489 3.263c-0.137 0.915-0.58 1.708-1.246 2.234-0.103 0.081-0.41 0.272-0.466 0.3-0.305 0.138-2.11 0.138-2.417 0-0.056-0.028-0.363-0.219-0.467-0.301-0.666-0.525-1.109-1.319-1.246-2.234l-0.489-3.263c-0.143-0.956-0.764-1.732-1.58-1.976-0.743-0.222-1.394-0.672-1.902-1.274-0.012-0.017-0.025-0.033-0.039-0.048-0.371-0.452-0.664-0.986-0.857-1.573h2.402c0.213 0 0.385-0.198 0.385-0.443s-0.172-0.443-0.385-0.443h-2.611c-0.037-0.256-0.057-0.518-0.057-0.785v-0.056h16.111v0.056z"></path>
</symbol>
<symbol id="icon-arrowLeft" viewBox="0 0 19 32">
<path fill="none" stroke="#ff751d" style="stroke: var(--color3, #ff751d)" stroke-linejoin="miter" stroke-linecap="butt" stroke-miterlimit="4" stroke-width="5.3333" d="M16 2.667l-10.667 13.333 10.667 13.333"></path>
</symbol>
<symbol id="icon-arrowRight" viewBox="0 0 19 32">
<path fill="none" stroke="#ff751d" style="stroke: var(--color3, #ff751d)" stroke-linejoin="miter" stroke-linecap="butt" stroke-miterlimit="4" stroke-width="5.3333" d="M2.667 2.667l10.667 13.333-10.667 13.333"></path>
</symbol>
<symbol id="icon-arrowToBack" viewBox="0 0 48 32">
<path fill="#ff751d" style="fill: var(--color3, #ff751d)" d="M48 13.333h-37.787l9.547-9.573-3.76-3.76-16 16 16 16 3.76-3.76-9.547-9.573h37.787v-5.333z"></path>
</symbol>
<symbol id="icon-calculator" viewBox="0 0 32 32">
<path d="M27.25 0h-22.5c-1.551 0-2.813 1.262-2.813 2.813v26.375c0 1.551 1.262 2.812 2.813 2.812h22.5c1.551 0 2.813-1.262 2.813-2.812v-26.375c0-1.551-1.262-2.813-2.813-2.813zM28.188 29.188c0 0.517-0.421 0.937-0.938 0.937h-22.5c-0.517 0-0.938-0.42-0.938-0.937v-26.375c0-0.517 0.421-0.938 0.938-0.938h22.5c0.517 0 0.938 0.421 0.938 0.938v26.375z"></path>
<path d="M25.375 3.75h-18.75c-0.518 0-0.938 0.42-0.938 0.938v7.625c0 0.518 0.42 0.938 0.938 0.938h18.75c0.518 0 0.937-0.42 0.937-0.938v-7.625c0-0.518-0.42-0.938-0.937-0.938zM24.437 11.375h-16.875v-5.75h16.875v5.75z"></path>
<path d="M10.375 15.125h-3.75c-0.518 0-0.938 0.42-0.938 0.938v3.75c0 0.518 0.42 0.938 0.938 0.938h3.75c0.518 0 0.938-0.42 0.938-0.938v-3.75c0-0.518-0.42-0.938-0.938-0.938zM9.438 18.875h-1.875v-1.875h1.875v1.875z"></path>
<path d="M10.375 22.625h-3.75c-0.518 0-0.938 0.42-0.938 0.938v3.75c0 0.518 0.42 0.937 0.938 0.937h3.75c0.518 0 0.938-0.42 0.938-0.937v-3.75c0-0.518-0.42-0.938-0.938-0.938zM9.438 26.375h-1.875v-1.875h1.875v1.875z"></path>
<path d="M17.875 15.125h-3.75c-0.518 0-0.938 0.42-0.938 0.938v3.75c0 0.518 0.42 0.938 0.938 0.938h3.75c0.518 0 0.937-0.42 0.937-0.938v-3.75c0-0.518-0.42-0.938-0.937-0.938zM16.937 18.875h-1.875v-1.875h1.875v1.875z"></path>
<path d="M17.875 22.625h-3.75c-0.518 0-0.938 0.42-0.938 0.938v3.75c0 0.518 0.42 0.937 0.938 0.937h3.75c0.518 0 0.937-0.42 0.937-0.937v-3.75c0-0.518-0.42-0.938-0.937-0.938zM16.937 26.375h-1.875v-1.875h1.875v1.875z"></path>
<path d="M25.375 15.125h-3.75c-0.518 0-0.937 0.42-0.937 0.938v11.25c0 0.518 0.42 0.937 0.937 0.937h3.75c0.518 0 0.937-0.42 0.937-0.937v-11.25c0-0.518-0.42-0.938-0.937-0.938zM24.437 26.375h-1.875v-9.375h1.875v9.375z"></path>
</symbol>
<symbol id="icon-calendar" viewBox="0 0 32 32">
<path fill="#52555f" style="fill: var(--color4, #52555f)" d="M27.961 3.307h-2.099v-0.514c0-0.518-0.42-0.938-0.937-0.938s-0.937 0.42-0.937 0.938v0.514h-2.587v-0.514c0-0.518-0.42-0.938-0.938-0.938s-0.937 0.42-0.937 0.938v0.514h-2.587v-0.514c0-0.518-0.42-0.938-0.937-0.938s-0.938 0.42-0.938 0.938v0.514h-2.587v-0.514c0-0.518-0.42-0.938-0.938-0.938s-0.938 0.42-0.938 0.938v0.514h-2.587v-0.514c0-0.518-0.42-0.938-0.938-0.938s-0.938 0.42-0.938 0.938v0.514h-2.099c-2.227 0-4.039 1.812-4.039 4.039v18.758c0 2.227 1.812 4.039 4.039 4.039h23.921c2.227 0 4.039-1.812 4.039-4.039v-18.758c0-2.227-1.812-4.039-4.039-4.039zM30.125 26.105c0 1.193-0.971 2.164-2.164 2.164h-23.921c-1.193 0-2.164-0.971-2.164-2.164v-15.333h28.25v15.333zM30.125 8.897h-28.25v-1.55c0-1.193 0.971-2.164 2.164-2.164h2.099v0.362c0 0.518 0.42 0.938 0.938 0.938s0.938-0.42 0.938-0.938v-0.362h2.587v0.362c0 0.518 0.42 0.938 0.938 0.938s0.938-0.42 0.938-0.938v-0.362h2.587v0.362c0 0.518 0.42 0.938 0.938 0.938s0.937-0.42 0.937-0.938v-0.362h2.587v0.362c0 0.518 0.42 0.938 0.937 0.938s0.938-0.42 0.938-0.938v-0.362h2.587v0.362c0 0.518 0.42 0.938 0.937 0.938s0.937-0.42 0.937-0.938v-0.362h2.099c1.193 0 2.164 0.971 2.164 2.164v1.55z"></path>
<path fill="#52555f" style="fill: var(--color4, #52555f)" d="M10.451 12.771h-3.699c-0.518 0-0.938 0.42-0.938 0.938v3.828c0 0.518 0.42 0.937 0.938 0.937h3.699c0.518 0 0.938-0.42 0.938-0.937v-3.828c0-0.518-0.42-0.938-0.938-0.938zM9.513 16.598h-1.824v-1.952h1.824v1.952z"></path>
<path fill="#52555f" style="fill: var(--color4, #52555f)" d="M17.85 12.771h-3.699c-0.518 0-0.938 0.42-0.938 0.938v3.828c0 0.518 0.42 0.937 0.938 0.937h3.699c0.518 0 0.937-0.42 0.937-0.937v-3.828c0-0.518-0.42-0.938-0.937-0.938zM16.912 16.598h-1.824v-1.952h1.824v1.952z"></path>
<path fill="#52555f" style="fill: var(--color4, #52555f)" d="M25.248 12.771h-3.699c-0.518 0-0.937 0.42-0.937 0.938v3.828c0 0.518 0.42 0.937 0.937 0.937h3.699c0.518 0 0.937-0.42 0.937-0.937v-3.828c0-0.518-0.42-0.938-0.937-0.938zM24.311 16.598h-1.824v-1.952h1.824v1.952z"></path>
<path fill="#52555f" style="fill: var(--color4, #52555f)" d="M10.451 20.041h-3.699c-0.518 0-0.938 0.42-0.938 0.938v3.827c0 0.518 0.42 0.938 0.938 0.938h3.699c0.518 0 0.938-0.42 0.938-0.938v-3.827c0-0.518-0.42-0.938-0.938-0.938zM9.513 23.868h-1.824v-1.952h1.824v1.952z"></path>
<path fill="#52555f" style="fill: var(--color4, #52555f)" d="M17.85 20.041h-3.699c-0.518 0-0.938 0.42-0.938 0.938v3.827c0 0.518 0.42 0.938 0.938 0.938h3.699c0.518 0 0.937-0.42 0.937-0.938v-3.827c0-0.518-0.42-0.938-0.937-0.938zM16.912 23.868h-1.824v-1.952h1.824v1.952z"></path>
<path fill="#52555f" style="fill: var(--color4, #52555f)" d="M25.248 20.041h-3.699c-0.518 0-0.937 0.42-0.937 0.938v3.827c0 0.518 0.42 0.938 0.937 0.938h3.699c0.518 0 0.937-0.42 0.937-0.938v-3.827c0-0.518-0.42-0.938-0.937-0.938zM24.311 23.868h-1.824v-1.952h1.824v1.952z"></path>
</symbol>
<symbol id="icon-close" viewBox="0 0 32 32">
<path fill="none" stroke="#52555f" style="stroke: var(--color4, #52555f)" stroke-linejoin="miter" stroke-linecap="butt" stroke-miterlimit="4" stroke-width="4.5714" d="M2.286 2.286l27.429 27.429"></path>
<path fill="none" stroke="#52555f" style="stroke: var(--color4, #52555f)" stroke-linejoin="miter" stroke-linecap="butt" stroke-miterlimit="4" stroke-width="4.5714" d="M2.286 29.714l27.429-27.429"></path>
</symbol>
<symbol id="icon-delete" viewBox="0 0 28 32">
<path fill="#52555f" style="fill: var(--color4, #52555f)" d="M27.214 7.153l-0.706-2.118c-0.269-0.807-1.021-1.349-1.871-1.349h-5.938v-1.933c0-0.966-0.786-1.753-1.752-1.753h-5.438c-0.966 0-1.752 0.786-1.752 1.753v1.933h-5.938c-0.85 0-1.603 0.542-1.872 1.349l-0.707 2.118c-0.161 0.482-0.079 1.016 0.218 1.428s0.778 0.659 1.286 0.659h0.739l1.626 20.1c0.121 1.491 1.386 2.66 2.882 2.66h12.804c1.495 0 2.761-1.169 2.882-2.66l1.625-20.1h0.409c0.508 0 0.989-0.246 1.286-0.658s0.379-0.947 0.218-1.429zM11.632 1.875h5.191v1.811h-5.191v-1.811zM21.807 29.189c-0.043 0.525-0.487 0.936-1.013 0.936h-12.804c-0.525 0-0.97-0.411-1.013-0.936l-1.614-19.949h18.056l-1.613 19.949zM3.147 7.365l0.579-1.737c0.013-0.040 0.051-0.067 0.093-0.067h20.818c0.042 0 0.079 0.027 0.093 0.067l0.579 1.737h-22.162z"></path>
</symbol>
<symbol id="icon-education" viewBox="0 0 31 32">
<path fill="#f5f6fb" style="fill: var(--color1, #f5f6fb)" d="M10.492 7.389h9.967c5.794 0 10.492 4.697 10.492 10.492v3.36c0 5.794-4.697 10.492-10.492 10.492h-9.967c-5.794 0-10.492-4.697-10.492-10.492v-3.36c0-5.794 4.697-10.492 10.492-10.492z"></path>
<path fill="#071f41" style="fill: var(--color2, #071f41)" d="M29.857 5.904c-0.002 0-0.004 0-0.006 0h-1.93v-0.661c0.010-0.261-0.159-0.496-0.41-0.569-1.34-0.351-2.72-0.527-4.106-0.524-2.278 0-5.381 0.513-7.676 2.847-2.278-2.357-5.404-2.847-7.676-2.847-1.385-0.003-2.765 0.173-4.106 0.524-0.251 0.073-0.42 0.308-0.41 0.569v0.655h-1.919c-0.314 0-0.569 0.255-0.569 0.569v18.188c0 0.314 0.255 0.569 0.569 0.569 0.098-0 0.194-0.026 0.279-0.074 0.057-0.029 5.751-3.143 13.701-1.139h0.137c0.045 0.006 0.091 0.006 0.137 0 7.972-2.021 13.666 1.088 13.701 1.139 0.176 0.102 0.393 0.102 0.569 0 0.175-0.101 0.284-0.287 0.285-0.49v-18.188c0-0.314-0.255-0.569-0.569-0.569zM2.188 23.75v-16.707h1.361v14.281c-0.004 0.314 0.248 0.572 0.563 0.576 0.031 0 0.061-0.002 0.092-0.006 1.178-0.18 2.367-0.275 3.559-0.285 1.651-0.029 3.294 0.22 4.863 0.735-3.542-0.428-7.135 0.056-10.438 1.406zM7.763 20.476c-1.036 0.002-2.070 0.069-3.098 0.199v-14.982c1.109-0.247 2.241-0.373 3.377-0.376 2.13 0 5.068 0.49 7.107 2.79l0.017 14.185c-1.184-0.774-3.496-1.817-7.403-1.817zM16.304 8.108c2.039-2.278 4.977-2.79 7.107-2.79 1.136 0.003 2.268 0.129 3.377 0.376v14.982c-1.022-0.132-2.051-0.2-3.081-0.205-3.884 0-6.201 1.042-7.403 1.817v-14.179zM29.282 23.75c-3.31-1.354-6.911-1.839-10.46-1.406 1.576-0.517 3.228-0.765 4.886-0.735 1.199 0.007 2.396 0.1 3.582 0.279 0.311 0.047 0.601-0.167 0.648-0.478 0.005-0.030 0.007-0.061 0.006-0.092v-14.276h1.361l-0.023 16.707z"></path>
</symbol>
<symbol id="icon-entertainment" viewBox="0 0 32 32">
<path fill="#f5f6fb" style="fill: var(--color1, #f5f6fb)" d="M11.091 6.826h9.812c5.891 0 10.667 4.776 10.667 10.667v3.416c0 5.891-4.776 10.667-10.667 10.667h-9.812c-5.891 0-10.667-4.776-10.667-10.667v-3.416c0-5.891 4.776-10.667 10.667-10.667z"></path>
<path fill="#071f41" style="fill: var(--color2, #071f41)" d="M29.454 14.676l-1.187-1.2v-11.413l0.998-1.008c0.196-0.198 0.196-0.518 0-0.715s-0.513-0.198-0.708 0l-0.998 1.008h-11.297l-1.187-1.199c-0.196-0.198-0.513-0.198-0.708 0s-0.196 0.518 0 0.715l1.137 1.148-3.525 15.090c-0.291 0.367-0.388 0.856-0.252 1.313 0.152 0.508 0.565 0.89 1.080 0.995l2.248 0.461c0.426 0.087 0.789 0.36 0.994 0.747s0.23 0.843 0.067 1.25c-0.266 0.662-0.961 1.036-1.653 0.887l-8.421-1.802c-1.268-0.271-2.546 0.456-2.974 1.691-0.248 0.717-0.176 1.505 0.199 2.163s1.013 1.118 1.75 1.262l0.035 0.007c0.664 0.129 1.227 0.549 1.546 1.151s0.352 1.308 0.091 1.938c-0.107 0.258 0.013 0.554 0.268 0.662 0.063 0.027 0.129 0.039 0.193 0.039 0.196 0 0.382-0.117 0.462-0.31 0.379-0.912 0.331-1.935-0.131-2.807s-1.278-1.479-2.239-1.667l-0.035-0.007c-0.452-0.088-0.843-0.37-1.072-0.773s-0.274-0.886-0.122-1.325c0.262-0.757 1.045-1.202 1.821-1.036l8.421 1.802c1.168 0.25 2.34-0.38 2.789-1.497 0.276-0.687 0.235-1.455-0.112-2.108s-0.958-1.112-1.677-1.26l-2.248-0.461c-0.224-0.046-0.299-0.222-0.321-0.295-0.018-0.059-0.043-0.194 0.034-0.33l14.89-3.55 1.137 1.148c0.098 0.099 0.226 0.148 0.354 0.148s0.256-0.049 0.354-0.148c0.196-0.198 0.196-0.518 0-0.716zM26.557 2.359l-4.647 4.695-4.647-4.695h9.294zM16.335 2.853l4.866 4.917-7.873 7.954 3.006-12.871zM14.037 16.439l7.873-7.954 4.867 4.917-12.739 3.037zM27.265 12.464l-4.647-4.695 4.647-4.695v9.389z"></path>
</symbol>
<symbol id="icon-extraSalary" viewBox="0 0 33 32">
<path fill="#f5f6fb" style="fill: var(--color1, #f5f6fb)" d="M11.034 5.644h10.483c6.094 0 11.034 4.94 11.034 11.034v3.681c0 6.094-4.94 11.034-11.034 11.034h-10.483c-6.094 0-11.034-4.94-11.034-11.034v-3.681c0-6.094 4.94-11.034 11.034-11.034z"></path>
<path fill="#071f41" style="fill: var(--color2, #071f41)" d="M12.371 19.154c0-0.254-0.203-0.459-0.453-0.459h-4.389c-0.25 0-0.453 0.206-0.453 0.459v2.969c0 0.254 0.203 0.459 0.453 0.459h4.389c0.25 0 0.453-0.206 0.453-0.459v-2.969zM11.466 21.663h-3.484v-2.050h3.484v2.050z"></path>
<path fill="#071f41" style="fill: var(--color2, #071f41)" d="M23.135 21.592h2.438c0.25 0 0.453-0.206 0.453-0.459s-0.203-0.459-0.453-0.459h-2.438c-0.25 0-0.453 0.206-0.453 0.459s0.203 0.459 0.453 0.459z"></path>
<path fill="#071f41" style="fill: var(--color2, #071f41)" d="M23.135 19.613h2.438c0.25 0 0.453-0.206 0.453-0.459s-0.203-0.459-0.453-0.459h-2.438c-0.25 0-0.453 0.206-0.453 0.459s0.203 0.459 0.453 0.459z"></path>
<path fill="#071f41" style="fill: var(--color2, #071f41)" d="M27.524 24.106c-0.25 0-0.453 0.206-0.453 0.459v5.906c0 0.088-0.070 0.159-0.157 0.159h-20.726c-0.087 0-0.157-0.071-0.157-0.159v-10.162c0-0.254-0.203-0.459-0.453-0.459s-0.453 0.206-0.453 0.459v10.162c0 0.594 0.476 1.078 1.062 1.078h20.726c0.586 0 1.062-0.483 1.062-1.078v-5.906c0-0.254-0.203-0.459-0.453-0.459z"></path>
<path fill="#071f41" style="fill: var(--color2, #071f41)" d="M26.915 15.787h-7.472v-2.329c2.338-1.108 3.962-3.517 3.962-6.303 0-3.834-3.074-6.953-6.853-6.953-1.312 0-2.586 0.377-3.687 1.091-1.071 0.694-1.929 1.673-2.483 2.831-0.109 0.228-0.015 0.503 0.21 0.614s0.496 0.015 0.605-0.213c1.004-2.1 3.056-3.404 5.355-3.404 3.28 0 5.948 2.707 5.948 6.035s-2.668 6.035-5.948 6.035c-3.28 0-5.948-2.707-5.948-6.035 0-0.234 0.013-0.471 0.040-0.702 0.029-0.252-0.149-0.48-0.398-0.509s-0.473 0.151-0.502 0.403c-0.030 0.266-0.046 0.538-0.046 0.808 0 2.787 1.624 5.195 3.962 6.303v2.329h-7.472c-0.586 0-1.062 0.483-1.062 1.078v1.291c0 0.254 0.203 0.459 0.453 0.459s0.453-0.206 0.453-0.459v-1.291c0-0.088 0.070-0.159 0.157-0.159h5.89l4.132 4.791c0.086 0.1 0.21 0.157 0.341 0.157s0.255-0.057 0.341-0.157l4.132-4.791h5.89c0.087 0 0.157 0.072 0.157 0.159v5.545c0 0.254 0.203 0.459 0.453 0.459s0.453-0.206 0.453-0.459v-5.545c-0-0.594-0.477-1.078-1.062-1.078zM16.552 20.497l-3.27-3.791h0.831c0.25 0 0.453-0.206 0.453-0.459v-2.436c0.629 0.194 1.295 0.298 1.986 0.298s1.357-0.104 1.986-0.298v2.436c0 0.254 0.203 0.459 0.453 0.459h0.831l-3.27 3.791z"></path>
<path fill="#071f41" style="fill: var(--color2, #071f41)" d="M7.53 27.096h1.219c0.25 0 0.453-0.206 0.453-0.459s-0.203-0.459-0.453-0.459h-1.219c-0.25 0-0.453 0.206-0.453 0.459s0.203 0.459 0.453 0.459z"></path>
<path fill="#071f41" style="fill: var(--color2, #071f41)" d="M11.919 26.178h-1.219c-0.25 0-0.453 0.206-0.453 0.459s0.203 0.459 0.453 0.459h1.219c0.25 0 0.453-0.206 0.453-0.459s-0.203-0.459-0.453-0.459z"></path>
<path fill="#071f41" style="fill: var(--color2, #071f41)" d="M15.089 27.096c0.25 0 0.453-0.206 0.453-0.459s-0.203-0.459-0.453-0.459h-1.219c-0.25 0-0.453 0.206-0.453 0.459s0.203 0.459 0.453 0.459h1.219z"></path>
<path fill="#071f41" style="fill: var(--color2, #071f41)" d="M18.258 27.096c0.25 0 0.453-0.206 0.453-0.459s-0.203-0.459-0.453-0.459h-1.219c-0.25 0-0.453 0.206-0.453 0.459s0.203 0.459 0.453 0.459h1.219z"></path>
<path fill="#071f41" style="fill: var(--color2, #071f41)" d="M7.53 29.57h4.877c0.25 0 0.453-0.206 0.453-0.459s-0.203-0.459-0.453-0.459h-4.877c-0.25 0-0.453 0.206-0.453 0.459s0.203 0.459 0.453 0.459z"></path>
<path fill="#071f41" style="fill: var(--color2, #071f41)" d="M20.244 27.874c0 0.935 0.75 1.696 1.672 1.696 0.48 0 0.914-0.207 1.219-0.537 0.305 0.33 0.739 0.537 1.219 0.537 0.922 0 1.672-0.761 1.672-1.696s-0.75-1.696-1.672-1.696c-0.48 0-0.914 0.207-1.219 0.537-0.305-0.33-0.739-0.537-1.219-0.537-0.922 0-1.672 0.761-1.672 1.696zM24.354 27.096c0.423 0 0.767 0.349 0.767 0.778s-0.344 0.778-0.767 0.778-0.767-0.349-0.767-0.778c0-0.429 0.344-0.778 0.767-0.778zM22.683 27.874c0 0.429-0.344 0.778-0.767 0.778s-0.767-0.349-0.767-0.778c0-0.429 0.344-0.778 0.767-0.778s0.767 0.349 0.767 0.778z"></path>
<path fill="#071f41" style="fill: var(--color2, #071f41)" d="M15.052 9.558c-0.209-0.139-0.49-0.079-0.626 0.133s-0.078 0.497 0.131 0.636c0.585 0.388 0.985 0.503 1.501 0.532v0.506c0 0.254 0.203 0.459 0.453 0.459s0.453-0.206 0.453-0.459v-0.542c1.026-0.202 1.625-1.060 1.758-1.861 0.17-1.028-0.36-1.922-1.351-2.278-0.134-0.048-0.271-0.098-0.407-0.151v-2.202c0.345 0.082 0.551 0.26 0.569 0.276 0.184 0.169 0.468 0.156 0.636-0.029 0.169-0.186 0.158-0.477-0.026-0.649-0.026-0.024-0.464-0.424-1.179-0.532v-0.452c0-0.254-0.203-0.459-0.453-0.459s-0.453 0.206-0.453 0.459v0.487c-0.069 0.015-0.139 0.033-0.21 0.055-0.652 0.199-1.14 0.766-1.272 1.478-0.121 0.649 0.084 1.276 0.535 1.634 0.24 0.191 0.538 0.366 0.948 0.55v2.79c-0.357-0.026-0.602-0.113-1.006-0.381zM15.669 5.877c-0.184-0.146-0.262-0.43-0.204-0.742 0.052-0.28 0.235-0.617 0.593-0.751v1.744c-0.146-0.080-0.279-0.164-0.389-0.252zM17.069 7.55c0.848 0.304 0.796 1.041 0.76 1.26-0.071 0.428-0.365 0.882-0.865 1.060v-2.358c0.035 0.013 0.069 0.025 0.105 0.038z"></path>
</symbol>
<symbol id="icon-google" viewBox="0 0 32 32">
<path fill="#2196f3" style="fill: var(--color5, #2196f3)" d="M30.567 13.038c0.136 0 0.246 0.115 0.246 0.258v2.704c0 1.012-0.090 2.002-0.262 2.962-1.331 7.457-7.598 13.092-15.111 13.038-8.43-0.061-15.176-7.2-15.158-16.036 0.019-8.82 6.846-15.964 15.265-15.964 4.125 0 7.867 1.715 10.615 4.501 0.099 0.101 0.102 0.266 0.004 0.369l-3.65 3.826c-0.094 0.098-0.246 0.101-0.342 0.005-1.725-1.721-4.058-2.777-6.627-2.777-5.305 0-9.577 4.446-9.614 10.007-0.036 5.597 4.282 10.146 9.614 10.146 4.326 0 7.985-2.995 9.191-7.115h-8.945c-0.136 0-0.246-0.115-0.246-0.258v-5.408c0-0.142 0.11-0.258 0.246-0.258l14.774 0z"></path>
<path fill="#1e88e5" style="fill: var(--color6, #1e88e5)" d="M30.567 13.038h-1.843c0.136 0 0.246 0.115 0.246 0.258v2.704c0 1.012-0.090 2.002-0.262 2.962-1.27 7.114-7.033 12.57-14.083 13.009 0.27 0.017 0.541 0.026 0.815 0.028 7.513 0.054 13.78-5.581 15.111-13.038 0.172-0.96 0.262-1.95 0.262-2.962v-2.704c0-0.142-0.11-0.258-0.246-0.258z"></path>
<path fill="#f44336" style="fill: var(--color7, #f44336)" d="M6.815 11.78l-4.636-3.511c2.601-4.931 7.613-8.269 13.368-8.269 4.125 0 7.867 1.715 10.615 4.501 0.099 0.101 0.102 0.266 0.004 0.369l-3.65 3.826c-0.094 0.098-0.245 0.101-0.342 0.005-1.724-1.721-4.058-2.777-6.627-2.777-3.872 0-7.209 2.399-8.732 5.857z"></path>
<path fill="#e53935" style="fill: var(--color8, #e53935)" d="M5.477 10.767l1.338 1.014c1.39-3.156 4.292-5.429 7.732-5.802 0.026-0.003 0.051-0.006 0.077-0.009-0.303-0.030-0.61-0.046-0.92-0.046-3.498 0-6.546 1.933-8.228 4.843z"></path>
<path fill="#e53935" style="fill: var(--color8, #e53935)" d="M24.319 4.501c0.099 0.101 0.102 0.266 0.004 0.369l-2.962 3.105c0.284 0.226 0.555 0.468 0.813 0.726 0.096 0.096 0.248 0.094 0.342-0.005l3.65-3.826c0.098-0.102 0.095-0.268-0.004-0.369-2.748-2.786-6.49-4.501-10.615-4.501-0.31 0-0.617 0.011-0.922 0.030 3.759 0.235 7.152 1.894 9.694 4.471z"></path>
<path fill="#4caf50" style="fill: var(--color9, #4caf50)" d="M26.745 26.874c-2.788 3.153-6.773 5.126-11.198 5.126-5.976 0-11.151-3.6-13.656-8.844l4.733-3.4c1.42 3.704 4.881 6.32 8.923 6.32 2.537 0 4.844-1.030 6.562-2.713l4.636 3.51z"></path>
<path fill="#43a047" style="fill: var(--color10, #43a047)" d="M6.624 19.756l-1.396 1.003c1.621 3.165 4.809 5.318 8.476 5.318 0.31 0 0.617-0.016 0.919-0.046-3.64-0.364-6.689-2.855-8-6.274z"></path>
<path fill="#43a047" style="fill: var(--color10, #43a047)" d="M15.547 32c4.425 0 8.41-1.973 11.198-5.126l-1.135-0.86c-2.618 3.414-6.544 5.679-10.982 5.957 0.304 0.019 0.611 0.029 0.919 0.029z"></path>
<path fill="#ffc107" style="fill: var(--color11, #ffc107)" d="M5.934 16c0 1.328 0.245 2.595 0.69 3.756l-4.733 3.4c-1.030-2.153-1.609-4.584-1.609-7.156 0-2.804 0.688-5.439 1.897-7.731l4.636 3.511c-0.566 1.283-0.881 2.713-0.881 4.22z"></path>
<path fill="#ffb300" style="fill: var(--color12, #ffb300)" d="M5.228 20.759l1.396-1.003c-0.445-1.161-0.69-2.429-0.69-3.756 0-1.507 0.316-2.937 0.881-4.22l-1.338-1.014c-0.869 1.504-1.373 3.269-1.386 5.164-0.011 1.747 0.402 3.392 1.137 4.829z"></path>
</symbol>
<symbol id="icon-health" viewBox="0 0 29 32">
<path fill="#f5f6fb" style="fill: var(--color1, #f5f6fb)" d="M10.99 6.826h6.762c5.891 0 10.667 4.776 10.667 10.667v3.416c0 5.891-4.776 10.667-10.667 10.667h-6.762c-5.891 0-10.667-4.776-10.667-10.667v-3.416c0-5.891 4.776-10.667 10.667-10.667z"></path>
<path fill="#071f41" style="fill: var(--color2, #071f41)" d="M27.845 16.64l-0.475-7.752c-0.031-0.502-0.235-0.96-0.574-1.29s-0.773-0.491-1.221-0.455c-0.881 0.072-1.564 0.903-1.555 1.892l0.056 6.319-2.444 3.506c-0.39 0.56-1.038 0.784-1.625 0.616l2.659-3.868c0.467-0.679 0.389-1.662-0.177-2.239-0.302-0.308-0.693-0.46-1.1-0.428s-0.775 0.243-1.036 0.595l-4.017 5.419c-0.663 0.894-1.022 2.026-1.012 3.187l0.062 7.196c0.002 0.287 0.211 0.518 0.467 0.518l6.689 0.010c0 0 0 0 0.001 0 0.131 0 0.256-0.061 0.344-0.169s0.133-0.253 0.121-0.399l-0.273-3.522 4.441-6.61c0.487-0.724 0.724-1.622 0.669-2.526zM26.429 18.537l-4.548 6.77c-0.069 0.103-0.102 0.231-0.092 0.36l0.244 3.153-5.717-0.009-0.058-6.678c-0.008-0.914 0.275-1.805 0.796-2.508l4.017-5.419c0.096-0.13 0.232-0.208 0.382-0.22s0.295 0.044 0.406 0.158c0.209 0.213 0.237 0.576 0.065 0.826l-3.018 4.389c-0.079 0.115-0.112 0.262-0.091 0.405s0.095 0.27 0.203 0.35c1.080 0.802 2.551 0.534 3.348-0.61l2.545-3.65c0.065-0.093 0.1-0.209 0.099-0.327l-0.058-6.502c-0.004-0.438 0.299-0.806 0.689-0.838 0.199-0.016 0.39 0.055 0.541 0.201s0.24 0.349 0.254 0.571l0.475 7.752c0.040 0.653-0.132 1.302-0.483 1.825z"></path>
<path fill="#071f41" style="fill: var(--color2, #071f41)" d="M8.866 13.537c-0.261-0.352-0.629-0.563-1.036-0.595s-0.798 0.12-1.1 0.428c-0.566 0.577-0.643 1.56-0.177 2.239l2.659 3.868c-0.587 0.168-1.235-0.056-1.625-0.616l-2.444-3.506 0.056-6.319c0.009-0.989-0.674-1.82-1.555-1.892-0.447-0.036-0.882 0.125-1.221 0.455s-0.543 0.788-0.574 1.29l-0.475 7.752c-0.055 0.904 0.182 1.802 0.669 2.526l4.441 6.61-0.273 3.522c-0.011 0.146 0.033 0.291 0.121 0.399s0.213 0.169 0.344 0.169c0 0 0 0 0.001 0l6.689-0.010c0.256-0 0.464-0.232 0.467-0.518l0.062-7.196c0.010-1.162-0.349-2.293-1.012-3.187l-4.017-5.419zM12.903 28.81l-5.717 0.009 0.244-3.153c0.010-0.129-0.023-0.257-0.092-0.36l-4.548-6.77c-0.352-0.523-0.523-1.172-0.483-1.825l0.475-7.752c0.014-0.222 0.104-0.425 0.254-0.571 0.136-0.132 0.307-0.204 0.486-0.204 0.018 0 0.037 0.001 0.055 0.002 0.39 0.032 0.692 0.4 0.689 0.838l-0.058 6.502c-0.001 0.118 0.034 0.234 0.099 0.327l2.545 3.65c0.798 1.144 2.268 1.412 3.348 0.61 0.108-0.080 0.181-0.207 0.203-0.35s-0.012-0.29-0.091-0.405l-3.018-4.389c-0.172-0.251-0.144-0.613 0.065-0.826 0.111-0.114 0.256-0.17 0.406-0.158s0.286 0.090 0.382 0.22l4.017 5.419c0.521 0.703 0.804 1.594 0.796 2.508l-0.058 6.678z"></path>
<path fill="#071f41" style="fill: var(--color2, #071f41)" d="M23.764 5.89c0-1.573-0.547-3.052-1.54-4.165s-2.314-1.725-3.718-1.725c-1.405 0-2.725 0.613-3.718 1.725l-0.178 0.199-0.178-0.199c-0.993-1.112-2.314-1.725-3.718-1.725s-2.725 0.613-3.718 1.725c-2.050 2.296-2.050 6.033 0 8.329l7.284 8.158c0.091 0.102 0.211 0.153 0.331 0.153s0.239-0.051 0.331-0.153l7.284-8.158c0.993-1.112 1.54-2.591 1.54-4.164zM14.61 17.102l-6.954-7.788c-1.686-1.888-1.686-4.961 0-6.849 0.817-0.915 1.903-1.418 3.057-1.418s2.241 0.504 3.057 1.418l0.508 0.569c0.088 0.098 0.206 0.153 0.33 0.153s0.243-0.055 0.331-0.153l0.508-0.569c0.817-0.915 1.903-1.418 3.057-1.418s2.241 0.504 3.057 1.418c0.817 0.915 1.266 2.131 1.266 3.424s-0.45 2.51-1.266 3.424l-6.953 7.788z"></path>
</symbol>
<symbol id="icon-hobby" viewBox="0 0 31 32">
<path fill="#f5f6fb" style="fill: var(--color1, #f5f6fb)" d="M10.492 7.389h9.967c5.794 0 10.492 4.697 10.492 10.492v3.36c0 5.794-4.697 10.492-10.492 10.492h-9.967c-5.794 0-10.492-4.697-10.492-10.492v-3.36c0-5.794 4.697-10.492 10.492-10.492z"></path>
<path fill="#071f41" style="fill: var(--color2, #071f41)" d="M29.527 12.407h-1.751c-0.325 0-0.611 0.167-0.778 0.419-1.338-0.14-1.517-0.354-1.661-0.529-0.197-0.238-0.43-0.44-0.694-0.6l-4.023-2.444c-0.819-1.903-2.19-3.093-3.207-3.76-0.396-0.26-0.633-0.7-0.633-1.177 0-0.282 0.083-0.554 0.24-0.787l1-1.489c0.199-0.297 0.268-0.652 0.194-1.002s-0.282-0.647-0.584-0.837c-0.209-0.131-0.45-0.201-0.697-0.201h-4.754c-0.247 0-0.488 0.069-0.697 0.201-0.303 0.19-0.51 0.487-0.584 0.837s-0.005 0.706 0.194 1.002l1.001 1.489c0.157 0.234 0.24 0.506 0.24 0.787 0 0.477-0.236 0.917-0.633 1.177-1.507 0.988-4.875 3.902-3.602 9.595 0.71 3.176 1.259 5.414 1.589 6.491h-7.096c-0.585 0-1.097 0.416-1.216 0.989l-0.242 1.164c-0.077 0.368 0.015 0.746 0.252 1.037s0.588 0.459 0.964 0.459h24.414c0.376 0 0.727-0.167 0.964-0.459s0.329-0.67 0.252-1.037l-0.243-1.164c-0.119-0.573-0.631-0.989-1.216-0.989h-7.096c0.099-0.322 0.218-0.751 0.355-1.281h0.467c1.371 0 2.729-0.205 4.038-0.608l2.675-0.337c0.16 0.286 0.465 0.479 0.815 0.479h1.751c0.514 0 0.933-0.418 0.933-0.933v-5.558c0-0.515-0.419-0.933-0.933-0.933zM11.741 1.216c0.025-0.12 0.096-0.222 0.2-0.287 0.072-0.045 0.154-0.069 0.239-0.069h4.754c0.084 0 0.167 0.024 0.239 0.069 0.104 0.065 0.175 0.167 0.2 0.287s0.002 0.242-0.067 0.343l-0.495 0.737h-4.509l-0.495-0.737c-0.068-0.102-0.092-0.224-0.066-0.343zM12.172 6.213c0.64-0.419 1.022-1.128 1.022-1.897 0-0.41-0.111-0.808-0.319-1.159h3.363c-0.208 0.351-0.319 0.748-0.319 1.159 0 0.768 0.382 1.477 1.021 1.897 0.264 0.173 0.553 0.384 0.85 0.639h-6.466c0.301-0.259 0.592-0.471 0.848-0.639zM26.895 22.744l0.242 1.164c0.032 0.155-0.035 0.266-0.078 0.319s-0.138 0.141-0.296 0.141h-24.414c-0.158 0-0.253-0.088-0.296-0.141s-0.11-0.164-0.078-0.319l0.243-1.164c0.037-0.176 0.194-0.304 0.374-0.304h23.929c0.18 0 0.337 0.128 0.374 0.304zM18.522 21.579h-7.931c-0.177-0.528-0.627-2.098-1.652-6.679-0.432-1.932-0.329-3.681 0.305-5.211h1.585c0.238 0 0.43-0.193 0.43-0.43s-0.193-0.43-0.43-0.43h-1.159c0.243-0.419 0.513-0.79 0.794-1.116h8.188c0.281 0.328 0.551 0.699 0.792 1.116h-6.892c-0.238 0-0.43 0.193-0.43 0.43s0.193 0.43 0.43 0.43h5.703c-0.11 0.268-0.132 0.562-0.062 0.849 0.088 0.358 0.31 0.661 0.625 0.851l0.74 0.449h-4.783c-0.76 0-1.375 0.584-1.402 1.33-0.007 0.199 0.027 0.392 0.1 0.569h-0.441c-0.378 0-0.731 0.15-0.993 0.422s-0.4 0.63-0.386 1.008c0.021 0.591 0.412 1.081 0.951 1.259-0.085 0.179-0.133 0.38-0.133 0.591 0 0.761 0.619 1.38 1.38 1.38h0.652c-0.065 0.16-0.102 0.336-0.102 0.52 0 0.761 0.619 1.38 1.38 1.38h3.11c-0.181 0.684-0.297 1.068-0.369 1.281zM24.141 18.84c-0.025 0.003-0.050 0.009-0.074 0.016-1.238 0.386-2.523 0.581-3.819 0.581h-4.467c-0.286 0-0.52-0.233-0.52-0.52s0.233-0.52 0.52-0.52h2.821c0.238 0 0.43-0.193 0.43-0.43s-0.193-0.43-0.43-0.43h-4.751c-0.286 0-0.52-0.233-0.52-0.52s0.233-0.52 0.52-0.52h4.751c0.238 0 0.43-0.193 0.43-0.43s-0.193-0.43-0.43-0.43h-5.548c-0.289 0-0.532-0.224-0.542-0.5-0.005-0.143 0.047-0.278 0.145-0.38s0.232-0.159 0.374-0.159h5.571c0.238 0 0.43-0.193 0.43-0.43s-0.193-0.43-0.43-0.43h-3.849c-0.142 0-0.275-0.056-0.374-0.159s-0.15-0.237-0.145-0.38c0.010-0.276 0.253-0.5 0.542-0.5h5.932c0.244 0 0.453-0.158 0.519-0.394s-0.030-0.479-0.239-0.606l-1.722-1.046c-0.119-0.072-0.202-0.186-0.235-0.321s-0.012-0.274 0.060-0.393c0.148-0.245 0.469-0.324 0.713-0.176l4.394 2.669c0.181 0.11 0.342 0.249 0.477 0.413 0.352 0.425 0.804 0.68 2.169 0.829v4.825l-2.701 0.341zM29.599 18.899c0 0.040-0.033 0.072-0.072 0.072h-1.751c-0.040 0-0.073-0.033-0.073-0.072v-5.558c0-0.040 0.032-0.072 0.073-0.072h1.751c0.040 0 0.072 0.032 0.072 0.072v5.558z"></path>
<path fill="#071f41" style="fill: var(--color2, #071f41)" d="M21.684 27.989l-2.241-1.803c-0.185-0.149-0.456-0.119-0.605 0.066s-0.12 0.456 0.065 0.605l2.064 1.66h-12.82l2.068-1.663c0.185-0.149 0.214-0.42 0.065-0.605s-0.42-0.215-0.605-0.066l-2.245 1.806c-0.262 0.21-0.358 0.551-0.247 0.867s0.401 0.521 0.736 0.521h13.276c0.336 0 0.624-0.204 0.736-0.521s0.015-0.657-0.247-0.867z"></path>
</symbol>
<symbol id="icon-housing" viewBox="0 0 31 32">
<path fill="#f5f6fb" style="fill: var(--color1, #f5f6fb)" d="M10.667 6.826h10.133c5.891 0 10.667 4.776 10.667 10.667v3.416c0 5.891-4.776 10.667-10.667 10.667h-10.133c-5.891 0-10.667-4.776-10.667-10.667v-3.416c0-5.891 4.776-10.667 10.667-10.667z"></path>
<path fill="#071f41" style="fill: var(--color2, #071f41)" d="M28.386 11.155h-0.593v-2.205c0-1.304-1.061-2.364-2.364-2.364h-8.569c-0.794 0-1.498 0.394-1.927 0.997-0.429-0.603-1.132-0.997-1.927-0.997h-5.383c-0.242 0-0.438 0.196-0.438 0.438s0.196 0.438 0.438 0.438h5.383c0.821 0 1.489 0.668 1.489 1.489v4.376c-0.009-0.009-0.019-0.017-0.028-0.026-0.519-0.484-1.221-0.762-1.931-0.762h-7.287c-0.039-0.587-0.439-1.104-0.992-1.3-0.156-0.055-0.32-0.082-0.485-0.082h-0.824v-2.205c0-0.821 0.668-1.489 1.489-1.489h1.436c0.242 0 0.438-0.196 0.438-0.438s-0.196-0.438-0.438-0.438h-1.436c-1.304 0-2.364 1.061-2.364 2.364v2.205h-0.593c-0.816 0-1.48 0.664-1.48 1.48v4.568c0 1.7 1.383 3.083 3.083 3.083h0.22c0 0-0.479 1.288-0.479 1.29-0.302 0.813 0.32 1.706 1.186 1.706h0.704c0.394 0 0.771-0.188 1.009-0.502l1.886-2.493h14.652l1.886 2.493c0.238 0.314 0.615 0.502 1.009 0.502 0 0 0.703 0 0.704 0 0.867 0 1.488-0.893 1.186-1.706l-0.479-1.29h0.22c1.7 0 3.083-1.383 3.083-3.083v-4.568c0-0.816-0.664-1.48-1.48-1.48zM15.371 8.95c0-0.821 0.668-1.489 1.489-1.489h8.569c0.821 0 1.489 0.668 1.489 1.489v2.205c0 0-0.823 0-0.824 0-0.582 0-1.14 0.373-1.365 0.909-0.063 0.15-0.101 0.311-0.112 0.473 0 0-7.287 0-7.287 0-0.72 0-1.438 0.29-1.959 0.788v-4.376zM5.253 13.412h7.284c1.080 0 1.959 0.879 1.959 1.959v0.622h-9.243v-2.581zM5.024 22.251c-0.073 0.097-0.19 0.155-0.311 0.155 0 0-0.701 0-0.704 0-0.268 0-0.459-0.275-0.365-0.526l0.593-1.594h2.274l-1.487 1.965zM25.858 22.406h-0.704c-0.121 0-0.238-0.058-0.311-0.155l-1.487-1.965h2.274c0 0 0.591 1.589 0.593 1.594 0.093 0.252-0.099 0.526-0.366 0.526zM26.784 19.411h-23.702c-1.217 0-2.208-0.99-2.208-2.208v-4.568c0-0.334 0.272-0.605 0.605-0.605h2.292c0.334 0 0.605 0.271 0.605 0.605v3.796c0 0.242 0.196 0.438 0.438 0.438h16.069c0.242 0 0.438-0.196 0.438-0.438s-0.196-0.438-0.438-0.438h-5.514v-0.622c0-1.080 0.879-1.959 1.959-1.959h7.284v2.581h-1.98c-0.242 0-0.438 0.196-0.438 0.438s0.196 0.438 0.438 0.438h2.417c0.242 0 0.438-0.196 0.438-0.438v-3.796c0-0.334 0.271-0.605 0.605-0.605h2.292c0.334 0 0.605 0.271 0.605 0.605v4.568h0c0 1.217-0.99 2.208-2.208 2.208z"></path>
</symbol>
<symbol id="icon-invoice" viewBox="0 0 31 32">
<path fill="#f5f6fb" style="fill: var(--color1, #f5f6fb)" d="M10.492 7.389h9.967c5.794 0 10.492 4.697 10.492 10.492v3.36c0 5.794-4.697 10.492-10.492 10.492h-9.967c-5.794 0-10.492-4.697-10.492-10.492v-3.36c0-5.794 4.697-10.492 10.492-10.492z"></path>
<path fill="#071f41" style="fill: var(--color2, #071f41)" d="M29.213 0h-26.951c-0.414 0-0.752 0.338-0.752 0.752s0.338 0.752 0.752 0.752h1.623v27.102c0 0.276 0.15 0.533 0.395 0.664s0.539 0.119 0.771-0.038l3.265-2.175 3.278 2.181c0.251 0.169 0.583 0.169 0.834 0l3.266-2.175 3.278 2.181c0.251 0.169 0.583 0.169 0.834 0l3.266-2.175 3.278 2.181c0.125 0.082 0.269 0.125 0.414 0.125 0.119 0 0.244-0.031 0.357-0.088 0.244-0.132 0.395-0.389 0.395-0.664l-0.013-27.102h1.711c0.414 0 0.752-0.338 0.752-0.752s-0.338-0.771-0.752-0.771zM26.017 27.202l-2.526-1.68c-0.251-0.169-0.583-0.169-0.834 0l-3.266 2.181-3.278-2.181c-0.251-0.169-0.583-0.169-0.834 0l-3.266 2.175-3.278-2.175c-0.251-0.169-0.583-0.169-0.834 0l-2.513 1.674v-25.698h20.621l0.006 25.704z"></path>
<path fill="#071f41" style="fill: var(--color2, #071f41)" d="M8.849 12.009h7.879c0.414 0 0.752-0.338 0.752-0.752s-0.338-0.752-0.752-0.752h-7.879c-0.414 0-0.752 0.338-0.752 0.752s0.332 0.752 0.752 0.752z"></path>
<path fill="#071f41" style="fill: var(--color2, #071f41)" d="M8.849 14.623h5.904c0.414 0 0.752-0.338 0.752-0.752s-0.338-0.752-0.752-0.752h-5.904c-0.414 0-0.752 0.338-0.752 0.752s0.332 0.752 0.752 0.752z"></path>
<path fill="#071f41" style="fill: var(--color2, #071f41)" d="M20.664 12.009h1.968c0.414 0 0.752-0.338 0.752-0.752s-0.338-0.752-0.752-0.752h-1.968c-0.414 0-0.752 0.338-0.752 0.752s0.332 0.752 0.752 0.752z"></path>
<path fill="#071f41" style="fill: var(--color2, #071f41)" d="M20.664 14.623h1.968c0.414 0 0.752-0.338 0.752-0.752s-0.338-0.752-0.752-0.752h-1.968c-0.414 0-0.752 0.338-0.752 0.752s0.332 0.752 0.752 0.752z"></path>
<path fill="#071f41" style="fill: var(--color2, #071f41)" d="M8.849 5.973h7.879c0.414 0 0.752-0.338 0.752-0.752s-0.338-0.752-0.752-0.752h-7.879c-0.414 0-0.752 0.338-0.752 0.752s0.332 0.752 0.752 0.752z"></path>
<path fill="#071f41" style="fill: var(--color2, #071f41)" d="M8.849 8.581h5.904c0.414 0 0.752-0.338 0.752-0.752s-0.338-0.752-0.752-0.752h-5.904c-0.414 0-0.752 0.338-0.752 0.752s0.332 0.752 0.752 0.752z"></path>
<path fill="#071f41" style="fill: var(--color2, #071f41)" d="M20.664 5.973h1.968c0.414 0 0.752-0.338 0.752-0.752s-0.338-0.752-0.752-0.752h-1.968c-0.414 0-0.752 0.338-0.752 0.752s0.332 0.752 0.752 0.752z"></path>
<path fill="#071f41" style="fill: var(--color2, #071f41)" d="M20.664 8.581h1.968c0.414 0 0.752-0.338 0.752-0.752s-0.338-0.752-0.752-0.752h-1.968c-0.414 0-0.752 0.338-0.752 0.752s0.332 0.752 0.752 0.752z"></path>
<path fill="#071f41" style="fill: var(--color2, #071f41)" d="M8.849 18.12h7.879c0.414 0 0.752-0.338 0.752-0.752s-0.338-0.752-0.752-0.752h-7.879c-0.414 0-0.752 0.338-0.752 0.752s0.332 0.752 0.752 0.752z"></path>
<path fill="#071f41" style="fill: var(--color2, #071f41)" d="M8.849 20.727h5.904c0.414 0 0.752-0.338 0.752-0.752s-0.338-0.752-0.752-0.752h-5.904c-0.414 0-0.752 0.338-0.752 0.752s0.332 0.752 0.752 0.752z"></path>
<path fill="#071f41" style="fill: var(--color2, #071f41)" d="M20.664 18.12h1.968c0.414 0 0.752-0.338 0.752-0.752s-0.338-0.752-0.752-0.752h-1.968c-0.414 0-0.752 0.338-0.752 0.752s0.332 0.752 0.752 0.752z"></path>
<path fill="#071f41" style="fill: var(--color2, #071f41)" d="M20.664 20.727h1.968c0.414 0 0.752-0.338 0.752-0.752s-0.338-0.752-0.752-0.752h-1.968c-0.414 0-0.752 0.338-0.752 0.752s0.332 0.752 0.752 0.752z"></path>
</symbol>
<symbol id="icon-logo" viewBox="0 0 93 32">
<path fill="#fb7c2f" style="fill: var(--color13, #fb7c2f)" d="M14.452 5.161h17.548c4.561 0 8.258 3.697 8.258 8.258v10.323c0 4.561-3.697 8.258-8.258 8.258h-17.548c-4.561 0-8.258-3.697-8.258-8.258v-10.323c0-4.561 3.697-8.258 8.258-8.258z"></path>
<path fill="#fb7c2f" style="fill: var(--color13, #fb7c2f)" opacity="0.2" d="M8.258 0h17.548c4.561 0 8.258 3.697 8.258 8.258v10.323c0 4.561-3.697 8.258-8.258 8.258h-17.548c-4.561 0-8.258-3.697-8.258-8.258v-10.323c0-4.561 3.697-8.258 8.258-8.258z"></path>
<path fill="#000" style="fill: var(--color14, #000)" d="M23.88 21.234l1.327-1.456 2.857 4.995h3.834l-4.534-7.483 4.534-5.935h-3.999l-2.894 4.211-1.124 1.705v-5.916h-3.235v13.418h3.235v-3.539zM38.929 23.878c0.086 0.393 0.184 0.691 0.295 0.894h3.106v-0.157c-0.27-0.485-0.412-1.186-0.424-2.101v-4.414c-0.018-1.081-0.396-1.932-1.134-2.553s-1.742-0.931-3.013-0.931c-1.272 0-2.319 0.301-3.142 0.903-0.817 0.602-1.226 1.385-1.226 2.35h3.106c0-0.725 0.369-1.087 1.106-1.087 0.792 0 1.189 0.458 1.189 1.373v0.525h-0.958c-1.524 0-2.685 0.276-3.483 0.829s-1.198 1.37-1.198 2.451c0 0.86 0.329 1.576 0.986 2.147 0.657 0.565 1.456 0.848 2.396 0.848 1.026 0 1.825-0.359 2.396-1.078zM38.237 22.496c-0.252 0.166-0.571 0.249-0.958 0.249-0.295 0-0.538-0.086-0.728-0.258-0.19-0.178-0.286-0.409-0.286-0.691 0-0.971 0.541-1.456 1.622-1.456h0.903v1.594c-0.111 0.209-0.295 0.396-0.553 0.562zM52.89 19.861c0 1.548-0.35 2.786-1.051 3.714-0.694 0.922-1.634 1.382-2.82 1.382-0.915 0-1.668-0.335-2.258-1.005v4.654h-3.106v-13.805h2.903l0.092 0.922c0.596-0.737 1.379-1.106 2.35-1.106 1.229 0 2.184 0.455 2.866 1.364 0.682 0.903 1.023 2.147 1.023 3.732v0.148zM49.784 19.667c0-1.769-0.516-2.654-1.548-2.654-0.737 0-1.229 0.264-1.474 0.793v3.926c0.27 0.553 0.768 0.829 1.493 0.829 0.989 0 1.499-0.854 1.53-2.562v-0.332zM58.576 24.957c1.118 0 2.006-0.421 2.663-1.263l0.092 1.078h2.912v-9.971h-3.124v6.994c-0.301 0.51-0.808 0.765-1.521 0.765-0.829 0-1.244-0.427-1.244-1.281v-6.478h-3.106v6.46c0 1.192 0.28 2.107 0.839 2.746 0.565 0.633 1.395 0.949 2.488 0.949zM71.173 21.971c0-0.264-0.138-0.476-0.415-0.636s-0.802-0.326-1.576-0.498c-0.774-0.172-1.413-0.396-1.917-0.673-0.504-0.283-0.888-0.624-1.152-1.023s-0.396-0.857-0.396-1.373c0-0.915 0.378-1.668 1.134-2.258 0.635-0.5 1.434-0.791 2.397-0.871v-2.265h1.48v2.294c0.901 0.109 1.655 0.39 2.26 0.841 0.799 0.596 1.198 1.379 1.198 2.35h-3.115c0-0.799-0.421-1.198-1.262-1.198-0.326 0-0.599 0.092-0.82 0.276-0.221 0.178-0.332 0.402-0.332 0.673 0 0.276 0.135 0.501 0.405 0.673s0.7 0.313 1.29 0.424c0.596 0.111 1.118 0.243 1.567 0.396 1.499 0.516 2.249 1.441 2.249 2.774 0 0.909-0.405 1.65-1.216 2.221-0.605 0.43-1.346 0.698-2.223 0.804v2.274h-1.48v-2.245c-0.627-0.054-1.199-0.2-1.715-0.437-0.67-0.307-1.192-0.725-1.567-1.253s-0.562-1.084-0.562-1.668h2.903c0.012 0.461 0.166 0.799 0.461 1.014 0.295 0.209 0.673 0.313 1.133 0.313 0.424 0 0.74-0.086 0.949-0.258 0.215-0.172 0.323-0.396 0.323-0.673zM80.278 14.801v-2.479h-3.106v2.479h-1.272v2.156h1.272v4.949c0 1.026 0.255 1.791 0.765 2.295s1.299 0.756 2.368 0.756c0.608 0 1.192-0.089 1.751-0.267v-2.221c-0.209 0.037-0.467 0.055-0.774 0.055-0.399 0-0.667-0.074-0.802-0.221s-0.203-0.409-0.203-0.783v-4.562h1.64v-2.156h-1.64zM89.798 24.772c-0.111-0.203-0.209-0.501-0.295-0.894-0.571 0.719-1.37 1.078-2.396 1.078-0.94 0-1.739-0.283-2.396-0.848-0.657-0.571-0.986-1.287-0.986-2.147 0-1.081 0.399-1.898 1.198-2.451s1.96-0.829 3.483-0.829h0.958v-0.525c0-0.915-0.396-1.373-1.189-1.373-0.737 0-1.106 0.363-1.106 1.087h-3.106c0-0.965 0.408-1.748 1.226-2.35 0.823-0.602 1.871-0.903 3.142-0.903s2.276 0.31 3.013 0.931c0.737 0.62 1.115 1.471 1.133 2.553v4.414c0.012 0.915 0.154 1.616 0.424 2.101v0.157h-3.106zM87.853 22.745c0.387 0 0.706-0.083 0.958-0.249 0.258-0.166 0.442-0.353 0.553-0.562v-1.594h-0.903c-1.081 0-1.622 0.485-1.622 1.456 0 0.283 0.095 0.513 0.286 0.691 0.19 0.172 0.433 0.258 0.728 0.258z"></path>
</symbol>
<symbol id="icon-name" viewBox="0 0 126 32">
<path d="M5.97 18.253l2.449-2.69 5.273 9.229h7.076l-8.369-13.826 8.369-10.965h-7.382l-5.341 7.781-2.075 3.15v-10.931h-5.97v24.791h5.97v-6.538zM31.842 23.14c0.159 0.726 0.34 1.277 0.544 1.652h5.732v-0.289c-0.499-0.897-0.76-2.191-0.782-3.882v-8.156c-0.034-1.998-0.731-3.57-2.092-4.716s-3.215-1.72-5.562-1.72-4.281 0.556-5.8 1.669c-1.508 1.112-2.262 2.56-2.262 4.342h5.732c0-1.339 0.68-2.009 2.041-2.009 1.463 0 2.194 0.846 2.194 2.537v0.971h-1.769c-2.812 0-4.956 0.511-6.43 1.532s-2.211 2.531-2.211 4.529c0 1.589 0.607 2.912 1.82 3.967 1.213 1.044 2.688 1.567 4.423 1.567 1.894 0 3.368-0.664 4.423-1.992zM30.566 20.586c-0.465 0.306-1.055 0.46-1.769 0.46-0.544 0-0.992-0.159-1.344-0.477-0.352-0.329-0.527-0.755-0.527-1.277 0-1.794 0.998-2.69 2.994-2.69h1.667v2.946c-0.204 0.386-0.544 0.732-1.021 1.039zM57.612 15.716c0 2.861-0.647 5.148-1.939 6.862-1.281 1.703-3.016 2.554-5.205 2.554-1.69 0-3.079-0.619-4.167-1.856v8.599h-5.732v-25.507h5.358l0.17 1.703c1.1-1.362 2.546-2.043 4.338-2.043 2.268 0 4.031 0.84 5.29 2.52 1.259 1.669 1.888 3.967 1.888 6.896v0.272zM51.879 15.358c0-3.269-0.953-4.904-2.857-4.904-1.361 0-2.268 0.488-2.722 1.464v7.254c0.499 1.022 1.417 1.532 2.756 1.532 1.826 0 2.767-1.578 2.823-4.734v-0.613zM66.201 25.132c2.064 0 3.703-0.778 4.916-2.333l0.17 1.992h5.375v-18.423h-5.766v12.924c-0.556 0.942-1.491 1.413-2.807 1.413-1.531 0-2.297-0.789-2.297-2.367v-11.97h-5.732v11.936c0 2.202 0.516 3.894 1.548 5.074 1.043 1.169 2.574 1.754 4.592 1.754zM89.454 19.615c0-0.488-0.255-0.88-0.766-1.175s-1.48-0.602-2.909-0.919c-1.429-0.318-2.608-0.732-3.538-1.243-0.93-0.522-1.639-1.152-2.126-1.89s-0.731-1.584-0.731-2.537c0-1.691 0.697-3.082 2.092-4.172 1.171-0.925 2.647-1.461 4.425-1.609v-4.184h2.732v4.239c1.664 0.202 3.054 0.72 4.171 1.555 1.474 1.101 2.211 2.548 2.211 4.342h-5.749c0-1.476-0.777-2.214-2.331-2.214-0.601 0-1.106 0.17-1.514 0.511-0.408 0.329-0.612 0.744-0.612 1.243 0 0.511 0.249 0.925 0.748 1.243s1.293 0.579 2.382 0.783c1.1 0.204 2.064 0.448 2.891 0.732 2.767 0.954 4.15 2.662 4.15 5.125 0 1.68-0.748 3.048-2.245 4.104-1.118 0.794-2.485 1.29-4.103 1.486v4.201h-2.732v-4.148c-1.157-0.1-2.213-0.369-3.166-0.807-1.236-0.568-2.2-1.34-2.892-2.316s-1.038-2.004-1.038-3.082h5.358c0.023 0.851 0.306 1.476 0.85 1.873 0.544 0.386 1.242 0.579 2.092 0.579 0.782 0 1.367-0.159 1.752-0.477 0.397-0.318 0.596-0.732 0.596-1.243zM104.354 6.368v-4.58h-5.732v4.58h-2.347v3.984h2.347v9.144c0 1.896 0.471 3.309 1.412 4.24s2.398 1.396 4.372 1.396c1.122 0 2.2-0.165 3.232-0.494v-4.104c-0.385 0.068-0.862 0.102-1.428 0.102-0.737 0-1.23-0.136-1.48-0.409s-0.375-0.755-0.375-1.447v-8.428h3.028v-3.984h-3.028zM120.020 24.791c-0.204-0.375-0.386-0.925-0.544-1.652-1.054 1.328-2.529 1.992-4.423 1.992-1.735 0-3.209-0.522-4.422-1.567-1.214-1.056-1.82-2.378-1.82-3.967 0-1.998 0.737-3.508 2.211-4.529s3.618-1.532 6.43-1.532h1.769v-0.971c0-1.691-0.731-2.537-2.194-2.537-1.361 0-2.041 0.67-2.041 2.009h-5.733c0-1.782 0.754-3.229 2.263-4.342 1.519-1.112 3.453-1.669 5.8-1.669s4.201 0.573 5.562 1.72c1.36 1.146 2.058 2.719 2.092 4.716v8.156c0.023 1.691 0.284 2.985 0.782 3.882v0.289h-5.732zM116.431 21.046c0.714 0 1.304-0.153 1.769-0.46 0.476-0.306 0.816-0.653 1.020-1.039v-2.946h-1.667c-1.996 0-2.994 0.897-2.994 2.69 0 0.522 0.176 0.948 0.527 1.277 0.352 0.318 0.8 0.477 1.344 0.477z"></path>
</symbol>
<symbol id="icon-other" viewBox="0 0 31 32">
<path fill="#f5f6fb" style="fill: var(--color1, #f5f6fb)" d="M10.492 7.389h9.967c5.794 0 10.492 4.697 10.492 10.492v3.36c0 5.794-4.697 10.492-10.492 10.492h-9.967c-5.794 0-10.492-4.697-10.492-10.492v-3.36c0-5.794 4.697-10.492 10.492-10.492z"></path>
<path fill="#071f41" style="fill: var(--color2, #071f41)" d="M30.422 20.503c-0.877-7.039-7.445-8.082-9.299-8.235v-6.393c0-0.044-0.062-4.407-5.386-4.407s-5.386 4.363-5.386 4.407v6.393c-1.854 0.154-8.419 1.197-9.299 8.235 0 0.010-0.004 0.049-0.004 0.061v1.958c0 0.27 0.219 0.49 0.49 0.49h2.448v0.979h-1.469c-0.27 0-0.49 0.219-0.49 0.49 0 1.185 0.716 3.427 3.427 3.427s3.427-2.242 3.427-3.427c0-0.27-0.219-0.49-0.49-0.49h-1.469v-0.979h7.344v0.979h-1.469c-0.27 0-0.49 0.219-0.49 0.49 0 1.185 0.716 3.427 3.427 3.427s3.427-2.242 3.427-3.427c0-0.27-0.219-0.49-0.49-0.49h-1.469v-0.979h7.344v0.979h-1.469c-0.27 0-0.49 0.219-0.49 0.49 0 1.185 0.716 3.427 3.427 3.427s3.427-2.242 3.427-3.427c0-0.27-0.219-0.49-0.49-0.49h-1.469v-0.979h2.448c0.27 0 0.49-0.219 0.49-0.49v-1.958c0-0.011 0-0.049-0.004-0.061zM11.331 5.875c0-0.14 0.049-3.427 4.407-3.427 4.327 0 4.407 3.289 4.407 3.427v6.365h-0.979v-2.938h-0.979v2.938h-6.855v-6.365zM6.729 14.169c1.3-0.571 2.695-0.893 4.113-0.95h9.792c1.418 0.057 2.813 0.379 4.113 0.95 2.469 1.022 4.222 3.262 4.621 5.905h-27.259c0.398-2.642 2.151-4.883 4.621-5.905zM5.456 26.929c-1.193 0.090-2.247-0.771-2.397-1.958h4.791c-0.155 1.183-1.204 2.041-2.394 1.958zM5.945 23.991h-0.979v-0.979h0.979v0.979zM15.738 26.929c-1.193 0.090-2.247-0.771-2.397-1.958h4.791c-0.155 1.183-1.204 2.041-2.394 1.958zM16.227 23.991h-0.979v-0.979h0.979v0.979zM26.020 26.929c-1.194 0.091-2.249-0.771-2.399-1.958h4.793c-0.155 1.183-1.204 2.041-2.394 1.958zM26.509 23.991h-0.979v-0.979h0.979v0.979zM29.447 22.033h-27.419v-0.979h27.419v0.979z"></path>
<path fill="#071f41" style="fill: var(--color2, #071f41)" d="M15.738 14.199c-1.352 0-2.448 1.096-2.448 2.448s1.096 2.448 2.448 2.448c1.352 0 2.448-1.096 2.448-2.448-0.002-1.351-1.097-2.446-2.448-2.448zM15.738 18.116c-0.811 0-1.469-0.658-1.469-1.469s0.658-1.469 1.469-1.469 1.469 0.658 1.469 1.469c0 0.811-0.658 1.469-1.469 1.469z"></path>
<path fill="#071f41" style="fill: var(--color2, #071f41)" d="M16.717 16.647c0 0.541-0.438 0.979-0.979 0.979s-0.979-0.438-0.979-0.979c0-0.541 0.438-0.979 0.979-0.979s0.979 0.438 0.979 0.979z"></path>
<path fill="#071f41" style="fill: var(--color2, #071f41)" d="M18.186 7.344h0.979v0.979h-0.979v-0.979z"></path>
<path fill="#071f41" style="fill: var(--color2, #071f41)" d="M18.186 5.875v0.49h0.979v-0.49c0-0.251-0.098-2.448-3.427-2.448v0.979c2.272 0 2.448 1.126 2.448 1.469z"></path>
<path fill="#071f41" style="fill: var(--color2, #071f41)" d="M11.331 16.157h0.979v0.979h-0.979v-0.979z"></path>
<path fill="#071f41" style="fill: var(--color2, #071f41)" d="M9.373 16.157h0.979v0.979h-0.979v-0.979z"></path>
<path fill="#071f41" style="fill: var(--color2, #071f41)" d="M19.165 16.157h0.979v0.979h-0.979v-0.979z"></path>
<path fill="#071f41" style="fill: var(--color2, #071f41)" d="M21.123 16.157h0.979v0.979h-0.979v-0.979z"></path>
</symbol>
<symbol id="icon-products" viewBox="0 0 33 32">
<path fill="#ffdac0" style="fill: var(--color15, #ffdac0)" d="M11.749 5.458h7.118c6.201 0 11.228 5.027 11.228 11.228v3.368c0 6.201-5.027 11.228-11.228 11.228h-7.118c-6.201 0-11.228-5.027-11.228-11.228v-3.368c0-6.201 5.027-11.228 11.228-11.228z"></path>
<path fill="#ff751d" style="fill: var(--color3, #ff751d)" d="M13.734 11.897c-0.266-0.326-0.645-0.517-1.039-0.524-0.793-0.011-1.449 0.697-1.463 1.584-0.004 0.286 0.199 0.522 0.455 0.527 0.003 0 0.005 0 0.008 0 0.252 0 0.458-0.226 0.462-0.509 0.005-0.317 0.237-0.571 0.523-0.566 0.143 0.002 0.274 0.069 0.371 0.187 0.172 0.211 0.465 0.226 0.654 0.033s0.202-0.521 0.030-0.732z"></path>
<path fill="#ff751d" style="fill: var(--color3, #ff751d)" d="M16.195 13.586c-0.142-0.373-0.418-0.668-0.757-0.808-0.683-0.282-1.444 0.11-1.697 0.874-0.089 0.268 0.033 0.566 0.273 0.666 0.053 0.022 0.107 0.033 0.161 0.033 0.188 0 0.365-0.129 0.434-0.338 0.076-0.229 0.305-0.347 0.51-0.262 0.103 0.043 0.183 0.128 0.226 0.242 0.1 0.263 0.372 0.386 0.607 0.274s0.345-0.416 0.245-0.68z"></path>
<path fill="#ff751d" style="fill: var(--color3, #ff751d)" d="M19.176 8.998c-0.181-0.202-0.474-0.202-0.654 0.001l-0.436 0.489c-0.18 0.203-0.18 0.531 0.001 0.733 0.090 0.101 0.209 0.151 0.327 0.151s0.237-0.051 0.327-0.152l0.436-0.489c0.18-0.203 0.18-0.531-0.001-0.733z"></path>
<path fill="#ff751d" style="fill: var(--color3, #ff751d)" d="M16.298 15.686h-0.617c-0.256 0-0.463 0.232-0.463 0.518s0.207 0.518 0.463 0.518h0.617c0.256 0 0.463-0.232 0.463-0.518s-0.207-0.518-0.463-0.518z"></path>
<path fill="#ff751d" style="fill: var(--color3, #ff751d)" d="M21.026 15.686h-0.617c-0.256 0-0.463 0.232-0.463 0.518s0.207 0.518 0.463 0.518h0.617c0.255 0 0.463-0.232 0.463-0.518s-0.207-0.518-0.463-0.518z"></path>
<path fill="#ff751d" style="fill: var(--color3, #ff751d)" d="M33.088 25.028l-0.12-0.728c-0.077-0.465-0.44-0.803-0.863-0.803-0.053 0-0.107 0.005-0.159 0.016l-2.452 0.505 1.111-0.831c0.291-0.218 0.438-0.608 0.375-0.994-0.018-0.106-0.051-0.207-0.099-0.303l-0.336-0.666c-0.115-0.229-0.312-0.399-0.538-0.467-0.111-0.033-0.227-0.041-0.34-0.024 0.124-0.764 0.187-1.545 0.187-2.34 0-0.353-0.189-0.656-0.46-0.791 0.353-0.941 0.378-2.019 0.028-3.006-0.028-0.080-0.070-0.152-0.125-0.213s-0.117-0.107-0.189-0.14c-0.419-0.187-0.859-0.281-1.308-0.281-0.057 0-0.115 0.002-0.172 0.005-0.064-1.446-1.133-2.6-2.437-2.6-0.172 0-0.339 0.020-0.501 0.059 0.112-0.753 0.046-1.541-0.216-2.28-0.028-0.081-0.070-0.154-0.128-0.22-0.055-0.062-0.12-0.11-0.192-0.142-0.451-0.201-0.925-0.303-1.409-0.303-0.729 0-1.426 0.229-2.028 0.656-0.22-0.713-0.582-1.383-1.089-1.952-0.148-0.167-0.346-0.258-0.556-0.258s-0.407 0.092-0.556 0.258l-2.24 2.514c-0.414-0.414-0.96-0.662-1.552-0.662-0.134 0-0.27 0.013-0.403 0.039-0.483 0.094-0.927 0.359-1.267 0.746-0.437-0.236-0.937-0.316-1.417-0.223-0.106 0.021-0.208 0.050-0.308 0.085v-1.937c0-1.334-0.957-2.422-2.142-2.444v-1.099c0.363-0.070 0.639-0.424 0.639-0.85v-2.49c0-0.476-0.346-0.863-0.771-0.863h-3.762c-0.425 0-0.771 0.387-0.771 0.863v2.49c0 0.426 0.277 0.78 0.639 0.85v1.099c-1.184 0.023-2.142 1.11-2.142 2.444v15.121c-0.924 0.934-1.498 2.238-1.498 3.679 0 2.835 2.222 5.142 4.953 5.142l18.515-0.006c0.632-0 1.226-0.311 1.63-0.853 0.394-0.528 0.561-1.213 0.465-1.889l3.698 0.744c0.051 0.010 0.104 0.016 0.156 0.016 0.184 0 0.361-0.063 0.511-0.183 0.192-0.154 0.323-0.392 0.357-0.653l0.1-0.753c0.014-0.108 0.013-0.216-0.005-0.323-0.064-0.385-0.325-0.69-0.667-0.778l-1.303-0.335 2.45-0.504c0.231-0.047 0.431-0.193 0.565-0.409s0.182-0.476 0.14-0.734zM27.8 14.997c0.278 0 0.552 0.049 0.816 0.147 0.235 0.802 0.147 1.668-0.221 2.382h-1.246l0.398-0.446c0.18-0.203 0.18-0.531-0.001-0.733s-0.474-0.202-0.654 0.001l-0.21 0.236c-0.099-0.364-0.271-0.689-0.497-0.956 0.459-0.408 1.023-0.631 1.617-0.631zM25.191 12.401c0.835 0 1.515 0.763 1.515 1.702 0 0.017-0.001 0.035-0.001 0.052-0.488 0.178-0.937 0.474-1.32 0.877-0.061-0.026-0.123-0.050-0.186-0.070-0.135-0.819-0.628-1.475-1.279-1.781 0.27-0.469 0.739-0.78 1.272-0.78zM22.746 9.515c0.314 0 0.623 0.057 0.92 0.17 0.239 0.796 0.19 1.652-0.114 2.393-0.25 0.256-0.454 0.568-0.593 0.92-0.083 0.005-0.165 0.016-0.247 0.031-0.362 0.071-0.7 0.247-0.983 0.502-0.096-0.198-0.215-0.38-0.35-0.544l1.061-1.191c0.18-0.203 0.18-0.531-0.001-0.733s-0.474-0.202-0.654 0.001l-1.159 1.302c-0.221-0.117-0.459-0.198-0.71-0.236 0.108-0.618 0.376-1.201 0.79-1.666 0.545-0.612 1.269-0.949 2.039-0.949zM19.201 17.526h-0.401c-0.068-0.192-0.235-0.329-0.43-0.329s-0.363 0.136-0.43 0.329h-0.472c0.11-0.2 0.087-0.464-0.067-0.637-0.181-0.202-0.474-0.202-0.654 0.001l-0.436 0.489c-0.039 0.044-0.069 0.094-0.091 0.147h-0.941c-0.353-0.606-0.568-1.321-0.593-2.091h7.339c-0.026 0.77-0.241 1.485-0.593 2.091h-0.98c-0.022-0.053-0.052-0.103-0.091-0.147l-0.436-0.489c-0.181-0.202-0.473-0.203-0.654-0.001-0.155 0.173-0.177 0.438-0.067 0.637zM18.125 14.399c0.174-0.724 0.764-1.258 1.462-1.258s1.288 0.534 1.462 1.258h-2.925zM19.071 8.028c0.44 0.533 0.731 1.165 0.874 1.83-0.236 0.287-0.432 0.605-0.587 0.943-0.070-0.048-0.153-0.076-0.241-0.076h-0.616c-0.256 0-0.463 0.232-0.463 0.518s0.207 0.518 0.463 0.518h0.541c-0.030 0.143-0.054 0.288-0.071 0.434-0.184 0.054-0.359 0.131-0.523 0.229-0.308-0.596-0.819-1.040-1.424-1.218-0-0.001-0-0.003-0.001-0.004-0.036-0.234-0.1-0.457-0.186-0.664l2.235-2.509zM10.709 12.703c-0.027-0.085-0.048-0.172-0.061-0.26-0.133-0.857 0.383-1.675 1.149-1.825 0.081-0.016 0.163-0.024 0.244-0.024 0.305 0 0.596 0.109 0.842 0.315 0.102 0.085 0.231 0.12 0.356 0.095s0.236-0.105 0.306-0.224c0.217-0.367 0.549-0.61 0.936-0.686 0.081-0.016 0.163-0.024 0.245-0.024 0.685 0 1.268 0.549 1.385 1.306 0.013 0.087 0.020 0.177 0.020 0.269 0 0.268 0.184 0.492 0.422 0.515 0.517 0.051 0.957 0.415 1.162 0.929-0.273 0.367-0.463 0.816-0.535 1.308h-2.638c-0.328 0-0.609 0.227-0.727 0.548-0.58-0.443-1.264-0.681-1.981-0.681-0.449 0-0.889 0.095-1.308 0.281-0.071 0.032-0.135 0.079-0.189 0.139s-0.097 0.134-0.125 0.213c-0.106 0.301-0.177 0.61-0.216 0.921-0.166-0.211-0.283-0.474-0.328-0.769-0.109-0.703 0.22-1.403 0.799-1.702 0.218-0.113 0.323-0.392 0.242-0.645zM12.088 17.384l0.126 0.142h-1.111c-0.249-0.648-0.287-1.386-0.085-2.078 0.264-0.098 0.537-0.147 0.816-0.147 0.697 0 1.353 0.305 1.846 0.859 0.066 0.074 0.127 0.151 0.184 0.231 0.078 0.397 0.199 0.777 0.354 1.135h-0.697l-0.778-0.874c-0.181-0.203-0.473-0.203-0.654-0.001s-0.181 0.53-0.001 0.733zM10.118 17.526h-1.649c0.073-0.502 0.343-0.93 0.717-1.182 0.222 0.332 0.511 0.601 0.844 0.783 0.024 0.134 0.053 0.268 0.088 0.399zM5.45 1.036h3.453v2.144h-3.453v-2.144zM8.264 4.216v1.084h-2.175v-1.084h2.175zM3.947 9.847h3.004c0.255 0 0.463-0.232 0.463-0.518s-0.207-0.518-0.463-0.518h-3.004v-1.065c0-0.777 0.563-1.409 1.254-1.409h3.949c0.692 0 1.255 0.632 1.255 1.409v1.065h-0.864c-0.256 0-0.463 0.232-0.463 0.518s0.207 0.518 0.463 0.518h0.864v0.46c-0.53 0.582-0.805 1.435-0.669 2.313 0 0.002 0.001 0.004 0.001 0.005-0.742 0.57-1.138 1.584-0.98 2.602 0.009 0.059 0.021 0.118 0.033 0.176-0.231 0.143-0.439 0.327-0.617 0.543h-4.226v-6.099zM3.947 16.982h3.689c-0.049 0.175-0.084 0.356-0.101 0.544h-0.078c-0.426 0-0.772 0.388-0.772 0.866 0 0.823 0.068 1.63 0.201 2.42-0.133-0.012-0.269-0.018-0.408-0.018-0.559 0-1.092 0.099-1.501 0.28-0.624 0.276-0.797 0.668-0.835 0.94-0.066 0.037-0.131 0.076-0.196 0.116v-5.147zM9.805 23.347c0.167 0.149 0.268 0.276 0.327 0.368-0.006 0-0.011 0-0.017 0-0.262 0-0.732-0.118-1.267-0.45-0.199-0.124-0.383-0.263-0.531-0.404-0.173-0.164-0.426-0.164-0.598 0-0.148 0.141-0.331 0.28-0.53 0.403-0.535 0.332-1.005 0.45-1.267 0.45-0.006 0-0.012-0-0.017-0 0.059-0.092 0.161-0.218 0.327-0.368 0.146-0.131 0.207-0.346 0.156-0.547s-0.206-0.348-0.391-0.372c-0.451-0.059-0.737-0.188-0.871-0.282 0.167-0.117 0.591-0.316 1.353-0.316 0.631 0 1.092 0.149 1.313 0.288 0.141 0.088 0.312 0.088 0.453 0 0.221-0.139 0.683-0.288 1.313-0.288 0.762 0 1.185 0.199 1.353 0.316-0.134 0.094-0.419 0.222-0.871 0.282-0.185 0.024-0.339 0.171-0.391 0.372s0.010 0.417 0.156 0.547zM8.88 29.652l0.016 0.096c0.055 0.333 0.171 0.638 0.333 0.904h-2.752c-2.221 0-4.028-1.842-4.028-4.106 0-1.547 0.844-2.897 2.087-3.597 0.143 0.119 0.321 0.222 0.532 0.305-0.084 0.16-0.142 0.332-0.156 0.512-0.018 0.239 0.047 0.466 0.184 0.639 0.181 0.229 0.459 0.345 0.825 0.345 0.489 0 1.13-0.217 1.715-0.58 0.135-0.083 0.262-0.172 0.381-0.264 0.119 0.092 0.247 0.18 0.381 0.264 0.585 0.363 1.227 0.579 1.715 0.58h0c0.367 0 0.644-0.116 0.825-0.345 0.137-0.173 0.202-0.4 0.184-0.639-0.014-0.18-0.072-0.352-0.156-0.512 0.211-0.083 0.389-0.186 0.532-0.305 0.986 0.555 1.721 1.519 1.982 2.666l-3.272 1.392c-0.958 0.408-1.518 1.52-1.332 2.645zM25.912 30.165c-0.228 0.306-0.564 0.481-0.921 0.481l-0.485 0-0.303-1.834c-0.047-0.281-0.288-0.467-0.539-0.415s-0.417 0.322-0.371 0.604l0.272 1.646-1.592 0.001-0.205-1.24c-0.047-0.281-0.288-0.467-0.539-0.415s-0.417 0.322-0.371 0.604l0.174 1.052-3.702 0.002-0.279-1.685c-0.047-0.281-0.288-0.467-0.539-0.415s-0.417 0.322-0.371 0.604l0.248 1.496-5.406 0.002c-0 0-0 0-0 0-0.578 0-1.073-0.459-1.178-1.093l-0.016-0.096c-0.105-0.632 0.211-1.258 0.751-1.488l1.818-0.774 0.135 0.819c0.041 0.249 0.236 0.424 0.454 0.424 0.028 0 0.056-0.003 0.085-0.009 0.251-0.052 0.417-0.322 0.37-0.604l-0.166-1.004 2.699-1.148c0.239-0.102 0.359-0.401 0.268-0.668s-0.358-0.402-0.597-0.3l-1.256 0.534c-0.352-1.397-1.257-2.564-2.458-3.233-0.038-0.271-0.21-0.663-0.835-0.94-0.408-0.181-0.941-0.28-1.501-0.28-0.385 0-0.753 0.048-1.077 0.134v-0.313c0-0.286-0.207-0.518-0.463-0.518-0.108 0-0.207 0.042-0.286 0.111-0.073-0.54-0.114-1.089-0.121-1.646h15.067c0.256 0 0.463-0.232 0.463-0.518s-0.207-0.518-0.463-0.518h-0.189c0.295-0.679 0.461-1.441 0.461-2.246 0-0.457-0.312-0.834-0.71-0.876 0.173-0.183 0.39-0.306 0.631-0.353 0.071-0.014 0.142-0.021 0.213-0.021 0.597 0 1.105 0.479 1.207 1.138 0.012 0.076 0.018 0.155 0.018 0.234 0 0.268 0.183 0.492 0.422 0.515 0.553 0.054 1.005 0.52 1.1 1.132 0.025 0.163 0.022 0.323-0.003 0.477h-0.496c-0.256 0-0.463 0.232-0.463 0.518s0.207 0.518 0.463 0.518h3.595c-0.011 0.95-0.121 1.879-0.325 2.779l-2.507 1.657c-0.153-0.598-0.51-1.105-1.001-1.412-0.551-0.345-1.205-0.399-1.795-0.148l-5.163 2.197c-0.239 0.102-0.359 0.401-0.268 0.668s0.358 0.402 0.597 0.3l0.68-0.289 0.211 1.277c0.041 0.25 0.236 0.424 0.454 0.424 0.028 0 0.056-0.003 0.085-0.009 0.251-0.052 0.417-0.322 0.371-0.604l-0.242-1.462 3.604-1.533c0.334-0.142 0.704-0.112 1.015 0.084s0.526 0.53 0.591 0.921l0.936 5.659c0.065 0.39-0.029 0.789-0.257 1.094zM27.563 26.109c-0.216 0.044-0.374 0.252-0.379 0.498s0.145 0.461 0.359 0.516l3.444 0.885-0.086 0.646-3.993-0.804-0.624-3.774 3.478-2.299 0.29 0.575-2.933 2.196c-0.182 0.137-0.254 0.398-0.172 0.626s0.296 0.359 0.512 0.315l4.608-0.948 0.103 0.62-4.606 0.948z"></path>
</symbol>
<symbol id="icon-regist" viewBox="0 0 32 32">
<path fill="#cbccd0" style="fill: var(--color16, #cbccd0)" d="M20 28h-16v-24h16v2h4v-6h-24v32h24v-6h-4v2h-0z"></path>
<path fill="#cbccd0" style="fill: var(--color16, #cbccd0)" d="M24.586 8.586l-2.828 2.828 2.586 2.586h-10.344v4h10.344l-2.586 2.586 2.828 2.828 7.414-7.414-7.414-7.414z"></path>
</symbol>
<symbol id="icon-salary" viewBox="0 0 33 32">
<path fill="#ffdac0" style="fill: var(--color15, #ffdac0)" d="M11.034 5.644h10.483c6.094 0 11.034 4.94 11.034 11.034v3.681c0 6.094-4.94 11.034-11.034 11.034h-10.483c-6.094 0-11.034-4.94-11.034-11.034v-3.681c0-6.094 4.94-11.034 11.034-11.034z"></path>
<path fill="#ff751d" style="fill: var(--color3, #ff751d)" d="M17.089 12.887c-0.105-0.038-0.213-0.077-0.32-0.117v-1.976c0.355 0.143 0.605 0.343 0.615 0.351 0.257 0.214 0.636 0.177 0.848-0.083s0.177-0.646-0.080-0.862c-0.035-0.030-0.596-0.492-1.382-0.687v-0.3c0-0.338-0.27-0.612-0.603-0.612s-0.603 0.274-0.603 0.612v0.272c-0.064 0.014-0.128 0.030-0.193 0.049-0.694 0.212-1.195 0.805-1.34 1.587-0.141 0.759 0.103 1.517 0.621 1.93 0.237 0.188 0.525 0.361 0.911 0.54v2.589c-0.273-0.039-0.478-0.133-0.805-0.35-0.279-0.185-0.653-0.106-0.835 0.177s-0.104 0.662 0.175 0.848c0.573 0.38 0.977 0.514 1.465 0.557v0.381c0 0.338 0.27 0.612 0.603 0.612s0.603-0.274 0.603-0.612v-0.439c1.004-0.258 1.647-1.128 1.789-1.986 0.183-1.103-0.408-2.1-1.469-2.481zM15.562 12.205c-0.060-0.039-0.116-0.078-0.166-0.119-0.163-0.13-0.237-0.434-0.18-0.739 0.019-0.102 0.096-0.407 0.346-0.568v1.426zM17.368 15.165c-0.055 0.333-0.258 0.682-0.599 0.88v-1.971c0.655 0.279 0.639 0.851 0.599 1.091z"></path>
<path fill="#ff751d" style="fill: var(--color3, #ff751d)" d="M30.781 13.283l-3.833-2.568v-9.901c0-0.338-0.27-0.612-0.603-0.612h-14.483c-0.333 0-0.603 0.274-0.603 0.612v2.327h-2.293c-0.333 0-0.603 0.274-0.603 0.612v6.962l-3.833 2.568c-0.169 0.113-0.271 0.305-0.271 0.511v17.143c0 0.338 0.27 0.612 0.603 0.612h10.078c0.333 0 0.603-0.274 0.603-0.612s-0.27-0.612-0.603-0.612h-8.621l8.798-8.926 2.206 1.478c0.101 0.068 0.217 0.101 0.333 0.101s0.232-0.034 0.333-0.101l2.206-1.478 8.798 8.926h-8.621c-0.333 0-0.603 0.274-0.603 0.612s0.27 0.612 0.603 0.612h10.078c0.333 0 0.603-0.274 0.603-0.612v-17.143c0-0.206-0.102-0.398-0.271-0.511zM29.353 13.794l-2.405 1.611v-3.223l2.405 1.611zM12.466 1.426h13.276v14.788l-1.69 1.132v-13.593c0-0.338-0.27-0.612-0.603-0.612h-10.983v-1.714zM8.362 12.182v3.223l-2.405-1.611 2.405-1.611zM5.466 29.459v-14.527l8.623 5.778-8.623 8.749zM17.655 21.632l-8.086-5.418v-11.849h13.276v13.79l-5.19 3.477zM29.845 14.932v14.527l-8.623-8.749 8.623-5.778z"></path>
<path fill="#ff751d" style="fill: var(--color3, #ff751d)" d="M17.655 30.325c-0.159 0-0.314 0.066-0.427 0.179s-0.177 0.272-0.177 0.433 0.065 0.319 0.177 0.433c0.112 0.114 0.268 0.179 0.427 0.179s0.314-0.066 0.427-0.179c0.112-0.114 0.177-0.272 0.177-0.433s-0.065-0.319-0.177-0.433c-0.112-0.114-0.268-0.179-0.427-0.179z"></path>
</symbol>
<symbol id="icon-tools" viewBox="0 0 31 32">
<path fill="#f5f6fb" style="fill: var(--color1, #f5f6fb)" d="M10.492 7.389h9.967c5.794 0 10.492 4.697 10.492 10.492v3.36c0 5.794-4.697 10.492-10.492 10.492h-9.967c-5.794 0-10.492-4.697-10.492-10.492v-3.36c0-5.794 4.697-10.492 10.492-10.492z"></path>
<path fill="#071f41" style="fill: var(--color2, #071f41)" d="M20.979 8.902c-0.317 0-0.574 0.256-0.574 0.574s0.257 0.574 0.574 0.574c0.317 0 0.574-0.257 0.574-0.574s-0.256-0.574-0.574-0.574z"></path>
<path fill="#071f41" style="fill: var(--color2, #071f41)" d="M10.553 19.327c-0.317 0-0.574 0.257-0.574 0.574s0.256 0.574 0.574 0.574c0.317 0 0.574-0.256 0.574-0.574s-0.257-0.574-0.574-0.574z"></path>
<path fill="#071f41" style="fill: var(--color2, #071f41)" d="M29.741 3.53c-0.194-0.045-0.397 0.013-0.537 0.155l-2.379 2.398h-1.14l-1.255-1.301v-1.156l2.345-2.38c0.139-0.141 0.195-0.343 0.149-0.536s-0.187-0.347-0.375-0.411c-0.589-0.199-1.205-0.299-1.832-0.299-1.869 0-3.567 0.871-4.658 2.391-1.022 1.422-1.337 3.165-0.885 4.834l-4.226 4.226-7.041-7.057v-1.385c0-0.201-0.106-0.388-0.279-0.492l-4.057-2.434c-0.226-0.136-0.515-0.1-0.701 0.086l-1.623 1.622c-0.186 0.186-0.222 0.475-0.086 0.701l2.434 4.057c0.104 0.173 0.29 0.278 0.492 0.279l1.385 0 7.042 7.057-4.21 4.21c-1.668-0.451-3.412-0.136-4.835 0.887-1.518 1.091-2.389 2.788-2.389 4.657 0 0.627 0.101 1.243 0.299 1.832 0.063 0.189 0.22 0.331 0.414 0.376s0.397-0.013 0.537-0.155l2.378-2.397h1.147l1.306 1.306v1.147l-2.397 2.378c-0.141 0.14-0.2 0.343-0.155 0.537s0.187 0.35 0.376 0.414c0.589 0.199 1.205 0.299 1.832 0.299 1.869 0 3.566-0.871 4.657-2.389 1.022-1.423 1.338-3.167 0.887-4.835l3.381-3.381 0.775 0.841-0.355 0.355c-0.224 0.224-0.224 0.587 0 0.812s0.587 0.224 0.812 0l0.322-0.322 7.268 7.894c0.005 0.006 0.011 0.011 0.017 0.017 1.345 1.345 3.523 1.345 4.869-0 1.342-1.342 1.342-3.526 0-4.869-0.006-0.006-0.012-0.011-0.018-0.017l-7.907-7.254 0.318-0.318c0.224-0.224 0.224-0.587 0-0.811s-0.587-0.224-0.812 0l-0.353 0.353-0.843-0.774 3.398-3.398c0.483 0.129 0.982 0.195 1.486 0.195 3.164 0 5.738-2.574 5.738-5.737 0-0.627-0.101-1.243-0.299-1.832-0.063-0.188-0.22-0.331-0.414-0.376zM6.115 5.849c-0.108-0.108-0.253-0.163-0.406-0.163l-1.298-0-2.036-3.4 0.989-0.989 3.394 2.037v1.298c0 0.152 0.060 0.298 0.168 0.405l7.21 7.226-0.812 0.811-7.209-7.225zM20.709 17.041l7.933 7.278c0.886 0.896 0.884 2.346-0.008 3.238-0.894 0.894-2.341 0.897-3.238 0.008l-7.291-7.92 2.604-2.604zM19.863 16.264l-2.536 2.536-0.775-0.841 2.468-2.468 0.843 0.774zM24.717 10.328c-0.502 0-0.995-0.080-1.466-0.239-0.206-0.069-0.435-0.016-0.589 0.138-2.877 2.877-9.075 9.074-11.357 11.357-0.154 0.154-0.208 0.382-0.138 0.589 0.477 1.416 0.249 2.927-0.626 4.145-0.873 1.215-2.23 1.911-3.725 1.911-0.168 0-0.335-0.009-0.5-0.027l1.822-1.808c0.108-0.108 0.17-0.254 0.17-0.407v-1.623c0-0.152-0.060-0.298-0.168-0.406l-1.643-1.643c-0.108-0.108-0.253-0.168-0.406-0.168h-1.623c-0.153 0-0.3 0.061-0.407 0.17l-1.808 1.822c-0.018-0.165-0.027-0.332-0.027-0.5 0-1.495 0.697-2.852 1.911-3.725 1.218-0.875 2.729-1.103 4.145-0.626 0.206 0.070 0.435 0.016 0.589-0.138 0.032-0.031 11.349-11.349 11.357-11.357 0.154-0.154 0.208-0.382 0.138-0.589-0.477-1.416-0.249-2.926 0.625-4.144 0.873-1.216 2.231-1.913 3.726-1.913 0.173 0 0.345 0.010 0.515 0.028l-1.785 1.811c-0.106 0.107-0.165 0.252-0.165 0.403v1.623c0 0.149 0.058 0.292 0.161 0.398l1.585 1.643c0.108 0.112 0.257 0.175 0.413 0.175h1.623c0.153 0 0.299-0.061 0.407-0.17l1.808-1.822c0.018 0.165 0.027 0.332 0.027 0.5 0 2.531-2.059 4.59-4.59 4.59z"></path>
<path fill="#071f41" style="fill: var(--color2, #071f41)" d="M18.95 10.692l-7.18 7.18c-0.224 0.224-0.224 0.587 0 0.811s0.587 0.224 0.812 0l7.18-7.18c0.224-0.224 0.224-0.587 0-0.811s-0.587-0.224-0.812 0z"></path>
<path fill="#071f41" style="fill: var(--color2, #071f41)" d="M26.201 25.934c0.224 0.223 0.587 0.223 0.812-0.001s0.223-0.588-0.001-0.811l-5.172-5.155c-0.224-0.224-0.588-0.223-0.811 0.001s-0.223 0.588 0.001 0.811l5.172 5.155z"></path>
</symbol>
<symbol id="icon-transport" viewBox="0 0 28 32">
<path fill="#f5f6fb" style="fill: var(--color1, #f5f6fb)" d="M10.908 6.826h6.387c5.891 0 10.667 4.776 10.667 10.667v3.416c0 5.891-4.776 10.667-10.667 10.667h-6.387c-5.891 0-10.667-4.776-10.667-10.667v-3.416c0-5.891 4.776-10.667 10.667-10.667z"></path>
<path fill="#071f41" style="fill: var(--color2, #071f41)" d="M26.486 11.966l-0.573-0.689-2.013-6.158c-0.343-1.040-1.22-1.729-2.198-1.736h-14.376c-0.978 0-1.855 0.696-2.198 1.736l-1.985 6.082-0.826 0.868c-0.72 0.696-1.136 1.717-1.136 2.789v8.973c0.006 1.468 1.057 2.655 2.35 2.655h1.484c1.293 0 2.344-1.187 2.35-2.655v-1.302h13.943v1.302c0.006 1.468 1.057 2.655 2.35 2.655h1.484c1.293 0 2.344-1.187 2.35-2.655v-9.209c-0.006-1.002-0.365-1.959-1.006-2.655zM6.185 5.552c0.18-0.542 0.635-0.893 1.141-0.893h14.381c0.506 0 0.961 0.357 1.141 0.893l1.754 5.361h-1.31c-0.309-2.393-2.271-4.046-4.38-3.689-1.681 0.281-3.002 1.781-3.25 3.689h-11.233l1.754-5.361zM22.145 10.913h-5.346c0.309-1.678 1.76-2.751 3.238-2.4 1.057 0.255 1.883 1.193 2.108 2.4zM6.241 23.829c-0.006 0.766-0.551 1.378-1.226 1.378h-1.484c-0.675 0-1.22-0.613-1.226-1.378v-1.672c0.337 0.249 0.781 0.37 1.226 0.37h2.71v1.302zM26.368 23.829c-0.006 0.766-0.551 1.378-1.226 1.378h-1.484c-0.675 0-1.22-0.619-1.226-1.378v-1.302h2.71c0.444 0 0.888-0.121 1.226-0.37v1.672zM25.142 21.251h-21.611c-0.669 0.006-1.22-0.6-1.226-1.366v-5.029c0-0.702 0.275-1.372 0.748-1.825 0.006-0.006 0.017-0.019 0.022-0.026l0.765-0.817h21.291l0.54 0.657c0.006 0.013 0.023 0.019 0.028 0.032 0.422 0.453 0.663 1.085 0.663 1.742v5.265h0.006c-0.006 0.759-0.557 1.372-1.226 1.366z"></path>
<path fill="#071f41" style="fill: var(--color2, #071f41)" d="M8.602 14.742h-4.217c-0.309 0-0.562 0.287-0.562 0.638v3.319c0 0.351 0.253 0.638 0.562 0.638h4.217c0.309 0 0.562-0.287 0.562-0.638v-3.319c0-0.351-0.253-0.638-0.562-0.638zM8.040 18.060h-3.092v-2.042h3.092v2.042z"></path>
<path fill="#071f41" style="fill: var(--color2, #071f41)" d="M24.288 14.742h-4.217c-0.309 0-0.562 0.287-0.562 0.638v3.319c0 0.351 0.253 0.638 0.562 0.638h4.217c0.309 0 0.562-0.287 0.562-0.638v-3.319c0-0.351-0.253-0.638-0.562-0.638zM23.725 18.060h-3.092v-2.042h3.092v2.042z"></path>
<path fill="#071f41" style="fill: var(--color2, #071f41)" d="M17.052 17.422h-5.431c-0.309 0-0.562 0.287-0.562 0.638s0.253 0.638 0.562 0.638h5.431c0.309 0 0.562-0.287 0.562-0.638s-0.253-0.638-0.562-0.638z"></path>
<path fill="#071f41" style="fill: var(--color2, #071f41)" d="M17.052 15.444h-5.431c-0.309 0-0.562 0.287-0.562 0.638s0.253 0.638 0.562 0.638h5.431c0.309 0 0.562-0.287 0.562-0.638s-0.253-0.638-0.562-0.638z"></path>
</symbol>
<symbol id="icon-vector" viewBox="0 0 32 32">
<path fill="#52555f" style="fill: var(--color4, #52555f)" d="M0 9.6h6.857v22.4h-6.857v-22.4zM12.8 0h6.4v32h-6.4v-32zM25.6 18.286h6.4v13.714h-6.4v-13.714z"></path>
</symbol>
<symbol id="icon-eye" viewBox="0 0 32 32">
<path d="M16 6c-6.979 0-13.028 4.064-16 10 2.972 5.936 9.021 10 16 10s13.027-4.064 16-10c-2.972-5.936-9.021-10-16-10zM23.889 11.303c1.88 1.199 3.473 2.805 4.67 4.697-1.197 1.891-2.79 3.498-4.67 4.697-2.362 1.507-5.090 2.303-7.889 2.303s-5.527-0.796-7.889-2.303c-1.88-1.199-3.473-2.805-4.67-4.697 1.197-1.891 2.79-3.498 4.67-4.697 0.122-0.078 0.246-0.154 0.371-0.228-0.311 0.854-0.482 1.776-0.482 2.737 0 4.418 3.582 8 8 8s8-3.582 8-8c0-0.962-0.17-1.883-0.482-2.737 0.124 0.074 0.248 0.15 0.371 0.228v0zM16 13c0 1.657-1.343 3-3 3s-3-1.343-3-3 1.343-3 3-3 3 1.343 3 3z"></path>
</symbol>
<symbol id="icon-eye-blocked" viewBox="0 0 32 32">
<path d="M29.561 0.439c-0.586-0.586-1.535-0.586-2.121 0l-6.318 6.318c-1.623-0.492-3.342-0.757-5.122-0.757-6.979 0-13.028 4.064-16 10 1.285 2.566 3.145 4.782 5.407 6.472l-4.968 4.968c-0.586 0.586-0.586 1.535 0 2.121 0.293 0.293 0.677 0.439 1.061 0.439s0.768-0.146 1.061-0.439l27-27c0.586-0.586 0.586-1.536 0-2.121zM13 10c1.32 0 2.44 0.853 2.841 2.037l-3.804 3.804c-1.184-0.401-2.037-1.521-2.037-2.841 0-1.657 1.343-3 3-3zM3.441 16c1.197-1.891 2.79-3.498 4.67-4.697 0.122-0.078 0.246-0.154 0.371-0.228-0.311 0.854-0.482 1.776-0.482 2.737 0 1.715 0.54 3.304 1.459 4.607l-1.904 1.904c-1.639-1.151-3.038-2.621-4.114-4.323z"></path>
<path d="M24 13.813c0-0.849-0.133-1.667-0.378-2.434l-10.056 10.056c0.768 0.245 1.586 0.378 2.435 0.378 4.418 0 8-3.582 8-8z"></path>
<path d="M25.938 9.062l-2.168 2.168c0.040 0.025 0.079 0.049 0.118 0.074 1.88 1.199 3.473 2.805 4.67 4.697-1.197 1.891-2.79 3.498-4.67 4.697-2.362 1.507-5.090 2.303-7.889 2.303-1.208 0-2.403-0.149-3.561-0.439l-2.403 2.403c1.866 0.671 3.873 1.036 5.964 1.036 6.978 0 13.027-4.064 16-10-1.407-2.81-3.504-5.2-6.062-6.938z"></path>
</symbol>
</defs>
</svg>
